<?xml version="1.0" encoding="UTF-8"?> <svg xmlns="http://www.w3.org/2000/svg" xmlns:xlink="http://www.w3.org/1999/xlink" width="81pt" height="34pt" viewBox="0 0 81 34" version="1.1"><g id="surface1"><path style=" stroke:none;fill-rule:nonzero;fill:rgb(92.941176%,14.509804%,14.901961%);fill-opacity:1;" d="M 77.96875 32.746094 L 78.035156 32.746094 C 78.203125 33.011719 78.371094 33.214844 78.570312 33.347656 C 78.769531 33.480469 79.003906 33.546875 79.269531 33.546875 C 79.46875 33.546875 79.667969 33.480469 79.835938 33.378906 C 80 33.28125 80.132812 33.148438 80.234375 32.945312 C 80.335938 32.78125 80.367188 32.582031 80.367188 32.382812 C 80.367188 32.046875 80.265625 31.847656 80.066406 31.683594 C 79.867188 31.515625 79.570312 31.382812 79.167969 31.214844 C 78.769531 31.050781 78.46875 30.882812 78.238281 30.683594 C 78.035156 30.484375 77.9375 30.21875 77.9375 29.816406 C 77.9375 29.351562 78.105469 28.984375 78.4375 28.71875 C 78.769531 28.453125 79.167969 28.320312 79.667969 28.320312 C 79.867188 28.320312 80.066406 28.351562 80.265625 28.417969 C 80.46875 28.484375 80.632812 28.585938 80.765625 28.6875 C 80.734375 28.753906 80.667969 28.984375 80.566406 29.316406 L 80.5 29.316406 C 80.433594 29.117188 80.300781 28.953125 80.132812 28.820312 C 79.96875 28.6875 79.769531 28.652344 79.535156 28.652344 C 79.367188 28.652344 79.203125 28.6875 79.035156 28.753906 C 78.902344 28.820312 78.769531 28.953125 78.667969 29.085938 C 78.570312 29.21875 78.535156 29.382812 78.535156 29.550781 C 78.535156 29.882812 78.636719 30.082031 78.835938 30.25 C 79.035156 30.382812 79.335938 30.550781 79.734375 30.714844 C 80.132812 30.882812 80.46875 31.050781 80.667969 31.25 C 80.867188 31.449219 80.964844 31.714844 80.964844 32.082031 C 80.964844 32.347656 80.933594 32.613281 80.832031 32.8125 C 80.734375 33.011719 80.601562 33.214844 80.433594 33.378906 C 80.265625 33.546875 80.066406 33.644531 79.835938 33.746094 C 79.734375 33.777344 79.601562 33.8125 79.46875 33.847656 C 79.335938 33.878906 79.203125 33.878906 79.070312 33.878906 C 78.96875 33.878906 78.835938 33.878906 78.734375 33.847656 C 78.636719 33.8125 78.503906 33.8125 78.371094 33.746094 C 78.105469 33.679688 77.9375 33.546875 77.804688 33.414062 C 77.902344 33.28125 77.9375 33.046875 77.96875 32.746094 M 75.375 31.414062 L 75.375 33.8125 L 75.242188 33.8125 C 75.207031 33.8125 75.175781 33.8125 75.140625 33.8125 L 74.675781 33.8125 L 74.675781 31.582031 L 72.777344 28.519531 L 73.640625 28.519531 L 74.109375 29.382812 L 74.675781 30.382812 C 74.90625 30.75 75.039062 31.015625 75.105469 31.117188 C 75.175781 31.050781 75.273438 30.917969 75.375 30.683594 L 75.839844 29.882812 L 76.273438 29.085938 L 76.605469 28.484375 L 77.203125 28.484375 C 77.003906 28.753906 76.839844 28.984375 76.671875 29.25 L 75.804688 30.617188 C 75.640625 30.882812 75.507812 31.148438 75.375 31.414062 Z M 71.210938 31.382812 L 70.347656 29.382812 L 69.515625 31.382812 Z M 70.613281 28.386719 L 72.941406 33.8125 L 72.742188 33.8125 C 72.742188 33.8125 72.710938 33.8125 72.675781 33.8125 L 72.109375 33.8125 C 71.976562 33.414062 71.84375 33.046875 71.710938 32.714844 C 71.578125 32.382812 71.445312 32.046875 71.277344 31.714844 L 69.3125 31.714844 L 69.015625 32.480469 L 68.75 33.148438 C 68.648438 33.378906 68.582031 33.613281 68.546875 33.8125 L 68.414062 33.8125 C 68.382812 33.8125 68.347656 33.8125 68.347656 33.8125 L 67.984375 33.8125 L 70.414062 28.386719 Z M 62.988281 33.777344 L 62.988281 28.484375 L 65.285156 28.484375 C 65.652344 28.484375 65.984375 28.519531 66.25 28.585938 C 66.519531 28.652344 66.785156 28.785156 67.015625 28.953125 C 67.285156 29.183594 67.484375 29.453125 67.648438 29.785156 C 67.78125 30.117188 67.847656 30.484375 67.847656 30.882812 C 67.847656 31.214844 67.816406 31.546875 67.714844 31.816406 C 67.648438 32.113281 67.515625 32.347656 67.382812 32.582031 C 67.25 32.8125 67.050781 32.980469 66.851562 33.179688 C 66.71875 33.3125 66.519531 33.414062 66.351562 33.511719 C 66.285156 33.546875 66.183594 33.578125 66.085938 33.613281 C 65.984375 33.644531 65.886719 33.679688 65.785156 33.679688 C 65.6875 33.710938 65.585938 33.710938 65.484375 33.746094 C 65.386719 33.746094 65.285156 33.777344 65.21875 33.777344 Z M 63.6875 28.820312 L 63.6875 33.445312 C 63.722656 33.445312 63.753906 33.445312 63.789062 33.445312 C 63.820312 33.445312 63.886719 33.445312 63.953125 33.480469 L 64.355469 33.511719 L 64.652344 33.511719 C 65.1875 33.511719 65.617188 33.445312 65.953125 33.28125 C 66.351562 33.082031 66.617188 32.78125 66.816406 32.414062 C 66.984375 32.015625 67.082031 31.582031 67.082031 31.050781 C 67.082031 30.617188 67.050781 30.285156 66.949219 29.984375 C 66.851562 29.71875 66.71875 29.484375 66.550781 29.316406 C 66.351562 29.152344 66.117188 29.019531 65.785156 28.917969 C 65.484375 28.851562 65.121094 28.785156 64.6875 28.785156 C 64.621094 28.785156 64.554688 28.785156 64.421875 28.785156 C 64.289062 28.785156 64.222656 28.785156 64.1875 28.785156 Z M 60.660156 33.8125 L 60.660156 28.484375 L 61.324219 28.484375 L 61.324219 33.777344 L 61.191406 33.777344 C 61.15625 33.777344 61.125 33.777344 61.089844 33.777344 L 60.757812 33.777344 Z M 57.296875 28.484375 L 57.296875 33.414062 C 57.363281 33.414062 57.5625 33.414062 57.929688 33.414062 C 58.292969 33.414062 58.5625 33.378906 58.695312 33.378906 C 58.792969 33.378906 58.894531 33.378906 59.027344 33.347656 L 59.425781 33.3125 L 59.425781 33.777344 L 56.597656 33.777344 L 56.597656 28.484375 Z M 52.535156 33.914062 C 52.101562 33.914062 51.734375 33.847656 51.371094 33.710938 C 51.003906 33.578125 50.703125 33.378906 50.472656 33.148438 C 50.238281 32.914062 50.039062 32.613281 49.90625 32.28125 C 49.839844 32.113281 49.773438 31.949219 49.738281 31.75 C 49.707031 31.582031 49.707031 31.382812 49.707031 31.148438 C 49.707031 30.75 49.773438 30.351562 49.90625 30.015625 C 50.039062 29.683594 50.238281 29.382812 50.539062 29.117188 C 50.804688 28.886719 51.105469 28.6875 51.4375 28.585938 C 51.769531 28.453125 52.167969 28.386719 52.570312 28.386719 C 52.933594 28.386719 53.300781 28.453125 53.667969 28.550781 C 54.035156 28.652344 54.332031 28.820312 54.597656 29.019531 C 54.867188 29.21875 55.097656 29.519531 55.265625 29.851562 C 55.429688 30.183594 55.5 30.582031 55.5 31.015625 C 55.5 31.582031 55.363281 32.082031 55.132812 32.515625 C 54.898438 32.945312 54.53125 33.28125 54.066406 33.511719 C 53.601562 33.777344 53.101562 33.914062 52.535156 33.914062 Z M 54.734375 31.082031 C 54.734375 30.816406 54.734375 30.617188 54.699219 30.449219 C 54.664062 30.285156 54.632812 30.082031 54.53125 29.917969 C 54.464844 29.71875 54.367188 29.550781 54.234375 29.417969 C 54.101562 29.25 53.964844 29.117188 53.800781 29.019531 C 53.632812 28.917969 53.433594 28.820312 53.234375 28.753906 C 53.035156 28.6875 52.835938 28.652344 52.636719 28.652344 C 52.300781 28.652344 52.003906 28.71875 51.734375 28.851562 C 51.46875 28.984375 51.238281 29.152344 51.035156 29.382812 C 50.835938 29.617188 50.703125 29.882812 50.605469 30.21875 C 50.503906 30.550781 50.472656 30.882812 50.472656 31.28125 C 50.472656 31.648438 50.539062 31.980469 50.636719 32.28125 C 50.738281 32.582031 50.902344 32.8125 51.105469 33.046875 C 51.304688 33.246094 51.535156 33.414062 51.800781 33.511719 C 52.070312 33.613281 52.335938 33.679688 52.636719 33.679688 C 53 33.679688 53.335938 33.613281 53.601562 33.445312 C 53.867188 33.28125 54.101562 33.082031 54.265625 32.8125 C 54.433594 32.546875 54.566406 32.28125 54.664062 31.980469 C 54.664062 31.648438 54.734375 31.347656 54.734375 31.082031 Z M 34.589844 33.8125 L 34.589844 28.484375 L 36.222656 28.484375 C 36.820312 28.484375 37.253906 28.585938 37.519531 28.785156 C 37.785156 28.984375 37.953125 29.285156 37.953125 29.683594 C 37.953125 29.882812 37.917969 30.082031 37.820312 30.25 C 37.71875 30.417969 37.621094 30.550781 37.453125 30.683594 C 37.289062 30.816406 37.121094 30.917969 36.953125 30.984375 C 36.753906 31.050781 36.554688 31.117188 36.355469 31.148438 L 37.953125 33.179688 L 38.320312 33.613281 L 38.453125 33.8125 L 38.253906 33.8125 C 38.21875 33.8125 38.21875 33.8125 38.1875 33.8125 L 37.585938 33.8125 C 37.355469 33.480469 37.1875 33.28125 37.085938 33.148438 L 36.1875 31.949219 L 35.554688 31.214844 L 35.257812 31.214844 L 35.257812 33.8125 L 35.125 33.8125 C 35.089844 33.8125 35.058594 33.8125 35.023438 33.8125 Z M 35.289062 28.785156 L 35.289062 30.917969 L 35.65625 30.917969 C 35.921875 30.917969 36.121094 30.917969 36.289062 30.882812 C 36.589844 30.816406 36.820312 30.683594 37.019531 30.484375 C 37.1875 30.285156 37.289062 30.050781 37.289062 29.75 C 37.289062 29.183594 36.988281 28.886719 36.421875 28.785156 C 36.320312 28.785156 36.1875 28.753906 35.921875 28.753906 C 35.890625 28.753906 35.824219 28.753906 35.753906 28.753906 C 35.6875 28.753906 35.621094 28.753906 35.589844 28.753906 C 35.554688 28.753906 35.523438 28.753906 35.421875 28.753906 C 35.390625 28.785156 35.324219 28.785156 35.289062 28.785156 Z M 31.261719 28.851562 L 31.261719 30.78125 L 32.660156 30.78125 L 32.894531 30.75 L 33.125 30.714844 L 33.125 31.148438 L 32.894531 31.117188 L 32.660156 31.082031 L 31.261719 31.082031 L 31.261719 33.347656 C 31.328125 33.347656 31.527344 33.347656 31.894531 33.347656 C 32.261719 33.347656 32.527344 33.3125 32.660156 33.3125 C 32.757812 33.3125 32.859375 33.3125 32.960938 33.28125 C 33.058594 33.28125 33.191406 33.246094 33.359375 33.214844 L 33.359375 33.445312 C 33.359375 33.480469 33.359375 33.546875 33.359375 33.546875 L 33.390625 33.644531 L 30.59375 33.644531 L 30.59375 28.484375 L 33.359375 28.484375 L 33.359375 28.953125 C 33.226562 28.917969 33.125 28.917969 33.058594 28.886719 C 32.925781 28.886719 32.792969 28.851562 32.691406 28.851562 Z M 27.734375 32.015625 L 28.53125 29.917969 L 28.996094 28.617188 L 29.0625 28.484375 L 29.628906 28.484375 C 29.5625 28.617188 29.429688 28.917969 29.199219 29.417969 L 28.464844 31.148438 C 28.464844 31.183594 28.363281 31.382812 28.199219 31.78125 C 28.066406 32.082031 28 32.28125 27.964844 32.347656 C 27.898438 32.480469 27.832031 32.648438 27.765625 32.847656 C 27.597656 33.28125 27.464844 33.613281 27.398438 33.847656 L 27.300781 33.8125 L 27.167969 33.8125 L 27.066406 33.847656 L 26.433594 32.515625 L 25.703125 30.816406 L 25.003906 29.21875 C 24.871094 28.886719 24.902344 28.652344 24.835938 28.519531 L 25.46875 28.519531 L 25.769531 29.25 L 26.265625 30.617188 L 27.199219 32.980469 L 27.265625 32.980469 L 27.5 32.515625 C 27.53125 32.414062 27.597656 32.347656 27.632812 32.246094 C 27.699219 32.179688 27.734375 32.082031 27.734375 32.015625 Z M 21.441406 33.914062 C 21.007812 33.914062 20.640625 33.847656 20.273438 33.710938 C 19.910156 33.578125 19.609375 33.378906 19.375 33.148438 C 19.144531 32.914062 18.941406 32.613281 18.808594 32.28125 C 18.742188 32.113281 18.675781 31.949219 18.644531 31.75 C 18.609375 31.582031 18.609375 31.382812 18.609375 31.148438 C 18.609375 30.75 18.675781 30.351562 18.808594 30.015625 C 18.941406 29.683594 19.144531 29.382812 19.441406 29.117188 C 19.710938 28.886719 20.007812 28.6875 20.339844 28.585938 C 20.675781 28.453125 21.074219 28.386719 21.472656 28.386719 C 21.839844 28.386719 22.207031 28.453125 22.570312 28.550781 C 22.9375 28.652344 23.238281 28.820312 23.503906 29.019531 C 23.769531 29.21875 24.003906 29.519531 24.171875 29.851562 C 24.335938 30.183594 24.402344 30.582031 24.402344 31.015625 C 24.402344 31.582031 24.269531 32.082031 24.035156 32.515625 C 23.804688 32.945312 23.4375 33.28125 22.972656 33.511719 C 22.539062 33.777344 22.007812 33.914062 21.441406 33.914062 Z M 23.636719 31.082031 C 23.636719 30.816406 23.636719 30.617188 23.605469 30.449219 C 23.570312 30.285156 23.539062 30.082031 23.4375 29.917969 C 23.371094 29.71875 23.269531 29.550781 23.136719 29.417969 C 23.003906 29.25 22.871094 29.117188 22.707031 29.019531 C 22.539062 28.917969 22.339844 28.820312 22.140625 28.753906 C 21.941406 28.6875 21.738281 28.652344 21.539062 28.652344 C 21.207031 28.652344 20.90625 28.71875 20.640625 28.851562 C 20.375 28.984375 20.140625 29.152344 19.941406 29.382812 C 19.742188 29.617188 19.609375 29.882812 19.507812 30.21875 C 19.410156 30.550781 19.375 30.882812 19.375 31.28125 C 19.375 31.648438 19.441406 31.980469 19.542969 32.28125 C 19.640625 32.582031 19.808594 32.8125 20.007812 33.046875 C 20.207031 33.246094 20.441406 33.414062 20.707031 33.511719 C 20.972656 33.613281 21.242188 33.679688 21.539062 33.679688 C 21.90625 33.679688 22.238281 33.613281 22.503906 33.445312 C 22.773438 33.28125 23.003906 33.082031 23.171875 32.8125 C 23.335938 32.546875 23.472656 32.28125 23.570312 31.980469 C 23.605469 31.648438 23.636719 31.347656 23.636719 31.082031 Z M 17.910156 32.980469 L 17.878906 33.480469 C 17.746094 33.578125 17.546875 33.679688 17.378906 33.746094 C 17.210938 33.8125 17.011719 33.847656 16.8125 33.878906 C 16.613281 33.914062 16.414062 33.945312 16.179688 33.945312 C 15.746094 33.945312 15.382812 33.878906 15.046875 33.746094 C 14.714844 33.613281 14.414062 33.445312 14.183594 33.179688 C 13.949219 32.945312 13.78125 32.648438 13.648438 32.28125 C 13.515625 31.949219 13.449219 31.546875 13.449219 31.148438 C 13.449219 30.582031 13.582031 30.082031 13.816406 29.683594 C 14.082031 29.285156 14.414062 28.953125 14.882812 28.753906 C 15.3125 28.550781 15.8125 28.417969 16.378906 28.417969 C 16.578125 28.417969 16.746094 28.417969 16.945312 28.453125 C 17.144531 28.484375 17.3125 28.519531 17.511719 28.585938 C 17.710938 28.652344 17.878906 28.71875 18.042969 28.785156 C 17.976562 28.953125 17.910156 29.152344 17.878906 29.382812 L 17.8125 29.382812 C 17.746094 29.316406 17.644531 29.21875 17.511719 29.117188 C 17.378906 29.019531 17.210938 28.917969 17.011719 28.851562 C 16.8125 28.753906 16.578125 28.71875 16.347656 28.71875 C 15.878906 28.71875 15.515625 28.820312 15.179688 29.050781 C 14.847656 29.285156 14.617188 29.585938 14.449219 29.949219 C 14.28125 30.351562 14.214844 30.75 14.214844 31.183594 C 14.214844 31.683594 14.316406 32.082031 14.480469 32.449219 C 14.648438 32.8125 14.914062 33.113281 15.214844 33.3125 C 15.546875 33.511719 15.878906 33.613281 16.28125 33.613281 C 16.546875 33.613281 16.777344 33.578125 17.011719 33.511719 C 17.246094 33.445312 17.410156 33.347656 17.578125 33.246094 C 17.710938 33.113281 17.8125 33.046875 17.910156 32.980469 Z M 9.621094 32.746094 L 9.6875 32.746094 C 9.855469 33.011719 10.019531 33.214844 10.222656 33.347656 C 10.421875 33.480469 10.652344 33.546875 10.917969 33.546875 C 11.121094 33.546875 11.320312 33.480469 11.484375 33.378906 C 11.652344 33.28125 11.785156 33.148438 11.886719 32.945312 C 11.984375 32.78125 12.019531 32.582031 12.019531 32.382812 C 12.019531 32.046875 11.917969 31.847656 11.71875 31.683594 C 11.519531 31.515625 11.21875 31.382812 10.820312 31.214844 C 10.421875 31.050781 10.121094 30.882812 9.886719 30.683594 C 9.6875 30.484375 9.589844 30.21875 9.589844 29.816406 C 9.589844 29.351562 9.753906 28.984375 10.085938 28.71875 C 10.421875 28.453125 10.820312 28.320312 11.320312 28.320312 C 11.519531 28.320312 11.71875 28.351562 11.917969 28.417969 C 12.117188 28.484375 12.285156 28.585938 12.417969 28.6875 C 12.382812 28.753906 12.316406 28.984375 12.21875 29.316406 L 12.152344 29.316406 C 12.085938 29.117188 11.953125 28.953125 11.785156 28.820312 C 11.617188 28.6875 11.417969 28.652344 11.1875 28.652344 C 11.019531 28.652344 10.851562 28.6875 10.6875 28.753906 C 10.554688 28.820312 10.421875 28.953125 10.320312 29.085938 C 10.222656 29.21875 10.1875 29.382812 10.1875 29.550781 C 10.1875 29.882812 10.289062 30.082031 10.488281 30.25 C 10.6875 30.382812 10.988281 30.550781 11.386719 30.714844 C 11.785156 30.882812 12.117188 31.050781 12.316406 31.25 C 12.519531 31.449219 12.617188 31.714844 12.617188 32.082031 C 12.617188 32.347656 12.585938 32.613281 12.484375 32.8125 C 12.382812 33.011719 12.25 33.214844 12.085938 33.378906 C 11.917969 33.546875 11.6875 33.644531 11.484375 33.746094 C 11.386719 33.777344 11.253906 33.8125 11.121094 33.847656 C 10.988281 33.878906 10.851562 33.878906 10.71875 33.878906 C 10.621094 33.878906 10.488281 33.878906 10.386719 33.847656 C 10.289062 33.8125 10.152344 33.8125 10.019531 33.746094 C 9.753906 33.679688 9.589844 33.546875 9.453125 33.414062 C 9.554688 33.28125 9.589844 33.046875 9.621094 32.746094 Z M 7.425781 33.8125 L 7.425781 28.484375 L 8.089844 28.484375 L 8.089844 33.777344 L 7.957031 33.777344 C 7.921875 33.777344 7.890625 33.777344 7.855469 33.777344 L 7.523438 33.777344 Z M 47.507812 30.082031 L 47.507812 27.386719 L 47.742188 27.421875 L 48.074219 27.421875 L 48.308594 27.386719 L 48.308594 33.8125 L 48.140625 33.8125 C 48.074219 33.8125 48.039062 33.8125 48.039062 33.8125 L 47.476562 33.8125 L 47.476562 30.582031 L 46.808594 30.550781 L 46.042969 30.515625 L 44.945312 30.515625 C 44.84375 30.515625 44.710938 30.515625 44.546875 30.550781 C 44.34375 30.550781 44.246094 30.582031 44.179688 30.582031 L 43.511719 30.617188 L 43.511719 33.847656 L 43.347656 33.847656 C 43.28125 33.847656 43.246094 33.847656 43.246094 33.847656 L 42.914062 33.847656 L 42.679688 33.878906 L 42.679688 27.386719 L 43.28125 27.386719 L 43.546875 27.355469 L 43.546875 30.050781 L 45.542969 30.082031 C 45.808594 30.082031 46.144531 30.050781 46.542969 30.050781 C 46.910156 30.082031 47.242188 30.082031 47.507812 30.082031 Z M 0 33.777344 L 0 27.386719 L 2.761719 27.386719 C 3.195312 27.386719 3.59375 27.421875 3.929688 27.488281 C 4.261719 27.554688 4.5625 27.71875 4.828125 27.953125 C 5.160156 28.21875 5.394531 28.550781 5.59375 28.984375 C 5.757812 29.417969 5.859375 29.851562 5.859375 30.316406 C 5.859375 30.75 5.824219 31.117188 5.726562 31.449219 C 5.625 31.78125 5.492188 32.082031 5.328125 32.347656 C 5.160156 32.613281 4.925781 32.847656 4.695312 33.082031 C 4.527344 33.246094 4.292969 33.378906 4.0625 33.480469 C 3.960938 33.511719 3.863281 33.546875 3.730469 33.613281 C 3.59375 33.644531 3.496094 33.679688 3.363281 33.710938 C 3.230469 33.710938 3.128906 33.710938 2.996094 33.746094 C 2.863281 33.777344 2.761719 33.777344 2.664062 33.777344 L 1.832031 33.8125 L 0 33.8125 Z M 12.417969 18.996094 L 17.3125 16.832031 C 18.042969 16.535156 24.503906 14.105469 24.800781 13.738281 C 25.769531 12.503906 25.835938 11.605469 27.867188 9.375 C 29.296875 7.777344 31.960938 5.414062 34.023438 4.582031 C 35.789062 3.882812 37.785156 5.515625 39.085938 6.347656 C 41.214844 7.679688 43.480469 9.507812 45.378906 11.074219 C 46.242188 11.804688 46.675781 11.972656 48.242188 12.007812 C 47.90625 11.640625 47.707031 11.441406 47.339844 10.972656 L 44.378906 7.945312 C 43.246094 6.8125 41.546875 5.3125 40.050781 4.25 C 35.191406 0.753906 34.191406 0.421875 29.265625 3.617188 C 28.53125 4.082031 27.566406 4.75 26.964844 5.246094 C 26.101562 5.980469 25.601562 6.3125 24.800781 7.046875 L 22.671875 8.875 C 21.871094 9.574219 21.242188 10.273438 20.507812 10.839844 C 19.175781 11.839844 12.917969 18.230469 12.417969 18.996094 Z M 38.21875 2.085938 C 38.453125 2.417969 38.820312 2.585938 39.117188 2.785156 C 41.214844 4.183594 45.277344 7.710938 45.378906 7.777344 C 46.078125 6.777344 46.742188 5.78125 46.542969 4.082031 C 46.410156 2.785156 45.644531 1.6875 44.878906 1.085938 C 42.515625 -0.746094 39.417969 0.152344 38.21875 2.085938 Z M 5.195312 24.089844 C 8.65625 24.058594 12.085938 24.089844 15.546875 24.125 C 18.542969 24.15625 18.011719 24.457031 19.976562 23.359375 C 21.105469 22.726562 22.273438 22.160156 23.503906 21.5625 C 28 19.332031 33.859375 17.300781 39.484375 16.367188 C 50.371094 14.601562 61.921875 16.367188 71.546875 21.859375 L 75.140625 24.058594 C 75.105469 24.023438 75.074219 23.925781 75.074219 23.957031 C 75.074219 23.992188 75.007812 23.890625 75.007812 23.859375 L 74.339844 23.257812 C 59.09375 11.207031 38.617188 9.410156 20.574219 16.265625 C 16.511719 17.800781 10.886719 20.429688 7.089844 22.792969 C 6.726562 23.027344 6.558594 23.125 6.191406 23.324219 C 6.027344 23.425781 5.925781 23.492188 5.726562 23.625 Z M 0.832031 27.753906 L 0.832031 33.347656 C 0.867188 33.347656 0.898438 33.347656 0.964844 33.347656 C 1.03125 33.347656 1.097656 33.347656 1.164062 33.378906 L 1.632812 33.414062 L 1.996094 33.414062 C 2.664062 33.414062 3.195312 33.3125 3.5625 33.148438 C 4.027344 32.914062 4.394531 32.546875 4.59375 32.082031 C 4.792969 31.617188 4.925781 31.050781 4.925781 30.449219 C 4.925781 29.949219 4.859375 29.519531 4.761719 29.183594 C 4.660156 28.851562 4.496094 28.585938 4.261719 28.351562 C 4.027344 28.152344 3.730469 27.988281 3.363281 27.886719 C 2.996094 27.753906 2.53125 27.71875 1.996094 27.71875 C 1.929688 27.71875 1.832031 27.71875 1.664062 27.71875 C 1.5 27.71875 1.398438 27.71875 1.363281 27.71875 Z M 0.832031 27.753906 "></path></g></svg> 