<?xml version="1.0" encoding="UTF-8"?> <svg xmlns="http://www.w3.org/2000/svg" xmlns:xlink="http://www.w3.org/1999/xlink" width="93pt" height="26pt" viewBox="0 0 93 26" version="1.1"><defs><clipPath id="clip1"><path d="M 20 0 L 27 0 L 27 7 L 20 7 Z M 20 0 "></path></clipPath><clipPath id="clip2"><path d="M 26.566406 6.167969 C 26.566406 4.933594 26.472656 3.699219 26.472656 2.5625 C 26 -0.378906 21.652344 -0.855469 20.519531 1.707031 C 19.386719 4.175781 21.558594 5.976562 23.070312 6.167969 C 24.203125 6.074219 25.433594 6.074219 26.566406 6.167969 "></path></clipPath><linearGradient id="linear0" gradientUnits="userSpaceOnUse" x1="23.7165" y1="6.4675" x2="23.7165" y2="0.00097912" gradientTransform="matrix(0.944766,0,0,0.948905,0.584355,0)"><stop offset="0" style="stop-color:rgb(95.686275%,50.588235%,14.117647%);stop-opacity:1;"></stop><stop offset="1" style="stop-color:rgb(97.254902%,62.745098%,21.960784%);stop-opacity:1;"></stop></linearGradient></defs><g id="surface1"><path style=" stroke:none;fill-rule:evenodd;fill:rgb(0%,47.058824%,62.352941%);fill-opacity:1;" d="M 70.214844 26.191406 L 69.269531 26.191406 C 68.039062 26.191406 66.527344 25.808594 65.394531 25.335938 C 64.640625 25.050781 64.167969 24.765625 63.503906 24.292969 C 63.128906 24.007812 63.035156 23.914062 62.65625 23.628906 C 62.5625 23.628906 62.5625 23.53125 62.464844 23.53125 L 62.277344 23.34375 C 61.710938 22.679688 61.144531 22.109375 60.765625 21.253906 C 60.105469 20.023438 59.726562 18.597656 59.726562 17.175781 C 59.726562 16.226562 59.914062 14.992188 60.199219 14.234375 C 60.292969 14.042969 60.292969 13.949219 60.386719 13.855469 L 60.578125 13.472656 C 60.671875 13.285156 60.953125 12.714844 61.144531 12.527344 C 61.332031 12.242188 61.523438 11.957031 61.710938 11.671875 L 62.5625 10.816406 C 63.035156 10.34375 63.316406 10.152344 63.882812 9.773438 C 65.585938 8.730469 67.472656 8.160156 69.742188 8.160156 C 72.480469 8.160156 75.03125 9.203125 76.921875 10.914062 L 77.203125 11.195312 C 77.488281 11.480469 77.488281 11.480469 77.675781 11.765625 C 78.148438 12.429688 78.148438 12.429688 78.621094 13.285156 C 78.90625 13.757812 79.09375 14.328125 79.285156 14.898438 C 79.660156 16.132812 79.566406 17.269531 79.472656 18.503906 C 79.472656 18.789062 79.378906 19.167969 79.285156 19.453125 C 79.09375 20.023438 78.90625 20.589844 78.621094 21.066406 L 78.433594 21.445312 C 78.054688 22.203125 77.300781 23.058594 76.734375 23.628906 C 75.882812 24.386719 74.9375 24.957031 73.898438 25.335938 C 73.332031 25.621094 72.292969 25.90625 71.628906 26 C 71.441406 26 71.253906 26.09375 71.160156 26.09375 C 70.875 26.191406 70.496094 26.191406 70.214844 26.191406 M 69.457031 11.859375 C 70.496094 11.859375 71.160156 11.957031 72.101562 12.335938 C 72.386719 12.527344 72.671875 12.621094 72.953125 12.808594 C 73.238281 13 73.425781 13.191406 73.613281 13.378906 C 73.710938 13.472656 74.085938 13.949219 74.183594 14.042969 C 75.410156 15.75 75.410156 18.410156 74.183594 20.210938 C 73.613281 20.972656 72.953125 21.636719 72.007812 22.015625 C 71.726562 22.109375 71.253906 22.300781 70.96875 22.300781 C 69.457031 22.582031 68.324219 22.394531 67.097656 21.730469 C 66.71875 21.539062 66.246094 21.160156 65.960938 20.875 L 65.679688 20.496094 C 65.394531 20.117188 65.113281 19.738281 64.921875 19.261719 C 64.546875 18.3125 64.546875 18.027344 64.449219 17.082031 C 64.449219 16.796875 64.546875 16.226562 64.546875 15.941406 C 64.640625 15.183594 65.015625 14.328125 65.585938 13.664062 C 66.246094 12.808594 66.90625 12.429688 67.851562 11.957031 C 68.136719 12.050781 68.984375 11.859375 69.457031 11.859375 Z M 51.128906 8.636719 L 48.765625 8.636719 C 48.671875 8.636719 48.671875 8.636719 48.671875 8.730469 L 48.671875 12.050781 L 51.035156 12.050781 L 51.035156 19.832031 C 51.035156 20.589844 51.222656 21.253906 51.414062 21.917969 C 51.601562 22.488281 51.886719 23.058594 52.261719 23.53125 C 52.359375 23.722656 52.546875 23.816406 52.640625 24.007812 L 52.828125 24.195312 C 53.207031 24.578125 53.585938 24.765625 54.058594 25.050781 C 55.476562 25.714844 56.703125 26 58.5 26 C 58.972656 26 59.632812 25.90625 59.820312 25.90625 L 59.820312 22.109375 C 59.632812 22.109375 59.160156 22.203125 58.972656 22.203125 C 58.6875 22.203125 58.402344 22.203125 58.121094 22.109375 C 57.460938 22.015625 56.890625 21.730469 56.515625 21.351562 C 56.230469 21.160156 56.042969 20.875 55.851562 20.589844 C 55.664062 20.210938 55.476562 19.640625 55.476562 19.074219 L 55.476562 11.957031 L 59.539062 11.957031 L 59.539062 8.636719 L 55.476562 8.636719 L 55.476562 3.890625 L 51.035156 3.890625 L 51.035156 8.636719 Z M 37.902344 26.191406 L 36.863281 26.191406 C 36.203125 26.191406 35.636719 26.09375 35.066406 25.90625 C 34.785156 25.808594 34.5 25.714844 34.3125 25.621094 C 33.558594 25.335938 33.367188 25.242188 32.707031 24.765625 L 32.234375 24.386719 C 32.046875 24.292969 31.949219 24.195312 31.855469 24.007812 L 31.574219 23.722656 C 31.289062 23.4375 31.195312 23.25 30.910156 22.867188 C 30.4375 22.203125 30.0625 21.253906 29.777344 20.496094 C 29.398438 19.359375 29.304688 17.933594 29.304688 16.699219 C 29.304688 16.226562 29.398438 15.371094 29.496094 14.898438 L 29.683594 14.042969 C 29.964844 13 30.722656 11.480469 31.476562 10.722656 C 31.761719 10.4375 31.949219 10.25 32.234375 9.964844 L 32.515625 9.679688 C 32.800781 9.488281 33.179688 9.203125 33.460938 9.109375 C 33.652344 9.109375 33.652344 9.109375 33.839844 9.015625 C 35.539062 8.160156 38.089844 7.972656 39.980469 8.636719 C 40.074219 8.636719 40.171875 8.730469 40.359375 8.730469 C 41.019531 9.015625 41.113281 9.015625 41.777344 9.488281 C 41.871094 9.582031 41.964844 9.582031 42.058594 9.679688 C 42.152344 9.773438 42.25 9.773438 42.25 9.867188 L 42.625 10.34375 C 42.625 9.867188 42.625 9.488281 42.625 9.015625 C 42.625 8.730469 42.625 8.636719 42.722656 8.636719 L 47.066406 8.636719 C 47.253906 8.636719 47.160156 8.824219 47.160156 9.015625 C 47.160156 12.429688 47.160156 15.847656 47.160156 19.261719 C 47.160156 19.640625 47.066406 21.636719 47.253906 21.917969 C 47.351562 22.109375 47.632812 22.203125 47.824219 22.203125 L 49.238281 22.203125 L 49.238281 25.808594 L 44.894531 25.808594 C 44.515625 25.808594 44.234375 25.714844 43.949219 25.621094 C 42.816406 25.242188 42.910156 24.292969 42.910156 23.4375 C 42.816406 23.53125 42.625 23.816406 42.4375 24.007812 C 42.152344 24.386719 41.777344 24.671875 41.398438 24.957031 C 40.546875 25.527344 39.601562 25.90625 38.5625 26.09375 C 38.375 26.191406 38.089844 26.191406 37.902344 26.191406 Z M 38.375 22.582031 L 38.089844 22.582031 C 35.351562 22.582031 33.839844 20.023438 33.839844 17.460938 C 33.839844 16.417969 33.839844 15.941406 34.125 14.992188 C 34.40625 14.042969 35.066406 13.191406 35.824219 12.621094 C 35.917969 12.527344 36.109375 12.429688 36.203125 12.429688 C 36.675781 12.242188 37.050781 12.050781 37.523438 11.957031 C 39.128906 11.765625 40.640625 12.242188 41.585938 13.472656 C 41.871094 13.855469 42.058594 14.234375 42.25 14.613281 C 42.816406 16.035156 42.910156 17.839844 42.4375 19.167969 C 42.058594 20.304688 41.492188 21.351562 40.359375 21.917969 C 39.886719 22.394531 39.128906 22.582031 38.375 22.582031 Z M 0.585938 12.242188 C 1.71875 12.242188 1.8125 12.335938 2.191406 13.472656 L 2.851562 15.277344 C 2.945312 15.46875 2.945312 15.5625 3.039062 15.75 C 3.136719 15.941406 3.136719 16.035156 3.230469 16.226562 C 3.324219 16.320312 3.417969 16.417969 3.417969 16.605469 L 3.984375 17.933594 C 4.078125 18.125 4.078125 18.21875 4.175781 18.410156 C 4.269531 18.597656 4.269531 18.695312 4.363281 18.882812 C 4.550781 19.453125 4.835938 20.023438 5.023438 20.589844 L 6.0625 23.25 C 6.160156 23.4375 6.160156 23.53125 6.253906 23.722656 C 6.347656 24.101562 6.820312 25.050781 6.914062 25.527344 C 7.007812 25.714844 7.007812 25.808594 7.101562 26 L 12.488281 26 C 12.488281 25.90625 12.582031 25.714844 12.675781 25.621094 C 12.867188 25.144531 13.246094 24.195312 13.339844 23.816406 L 14.753906 20.304688 C 14.851562 20.210938 14.851562 20.023438 14.945312 19.832031 L 16.738281 15.46875 C 16.929688 14.898438 17.210938 14.328125 17.402344 13.664062 C 17.402344 13.570312 17.402344 13.570312 17.496094 13.472656 C 17.496094 13.378906 17.589844 13.378906 17.589844 13.285156 C 17.875 12.527344 18.15625 12.527344 19.101562 12.527344 L 19.101562 8.636719 C 18.25 8.636719 16.363281 8.539062 15.605469 8.730469 C 15.132812 8.824219 14.660156 9.109375 14.378906 9.582031 C 14.378906 9.582031 14.378906 9.582031 14.285156 9.679688 C 14.09375 9.867188 13.90625 10.53125 13.8125 10.722656 L 12.960938 13 C 12.675781 13.757812 12.394531 14.519531 12.109375 15.277344 L 11.636719 16.605469 C 11.070312 18.21875 10.503906 19.453125 10.125 21.253906 C 10.125 21.445312 10.03125 21.636719 10.03125 21.824219 L 9.84375 21.824219 C 9.84375 21.636719 9.75 21.445312 9.75 21.351562 C 9.652344 20.875 9.558594 20.402344 9.371094 19.925781 C 8.898438 18.503906 8.238281 16.890625 7.671875 15.46875 L 7.292969 14.519531 C 7.199219 14.234375 7.101562 13.949219 6.914062 13.664062 L 6.253906 11.859375 C 6.160156 11.578125 6.0625 11.292969 5.875 10.914062 C 5.78125 10.628906 5.6875 10.34375 5.496094 10.058594 C 5.496094 9.964844 5.402344 9.964844 5.402344 9.867188 C 5.308594 9.773438 5.308594 9.773438 5.308594 9.679688 C 4.929688 8.824219 4.269531 8.636719 3.136719 8.636719 L 0.585938 8.636719 Z M 20.234375 8.730469 L 20.234375 12.335938 L 21.652344 12.335938 C 22.503906 12.335938 22.410156 13.09375 22.410156 13.664062 L 22.410156 21.824219 C 22.410156 23.628906 22.03125 25.90625 24.582031 25.90625 L 29.117188 25.90625 L 29.117188 22.300781 C 28.644531 22.300781 27.792969 22.300781 27.414062 22.203125 C 27.226562 22.203125 27.132812 22.109375 27.039062 22.015625 C 26.847656 21.824219 26.847656 21.539062 26.847656 21.066406 C 26.847656 20.304688 26.847656 10.816406 26.847656 10.53125 C 26.847656 10.4375 26.847656 10.25 26.753906 10.058594 C 26.566406 9.015625 25.621094 8.539062 24.488281 8.539062 L 20.328125 8.539062 C 20.328125 8.636719 20.234375 8.636719 20.234375 8.730469 Z M 85.800781 12.808594 C 85.800781 12.335938 85.898438 12.050781 85.898438 11.480469 C 85.898438 11.007812 85.898438 10.34375 85.800781 9.867188 C 85.707031 9.582031 85.519531 9.394531 85.328125 9.109375 C 84.953125 8.730469 84.289062 8.539062 83.535156 8.539062 L 79.472656 8.539062 C 79.378906 8.539062 79.378906 8.539062 79.378906 8.636719 L 79.378906 12.144531 C 79.378906 12.335938 79.660156 12.242188 80.039062 12.242188 C 80.324219 12.242188 80.511719 12.242188 80.796875 12.242188 C 81.265625 12.242188 81.550781 12.429688 81.550781 12.90625 L 81.550781 25.808594 L 85.992188 25.808594 L 85.992188 18.976562 C 85.992188 18.027344 86.085938 17.175781 86.367188 16.417969 C 86.464844 16.035156 86.558594 15.65625 86.746094 15.371094 C 86.9375 14.898438 87.03125 14.898438 87.21875 14.613281 C 88.070312 13.378906 89.769531 12.621094 91.28125 12.621094 C 91.660156 12.621094 91.941406 12.714844 92.320312 12.714844 L 92.320312 8.539062 C 92.320312 8.445312 92.039062 8.445312 91.847656 8.445312 C 91 8.445312 90.902344 8.445312 90.054688 8.636719 C 89.390625 8.824219 88.542969 9.203125 87.976562 9.679688 C 86.9375 10.4375 86.273438 11.480469 85.800781 12.714844 C 85.800781 12.714844 85.800781 12.808594 85.800781 12.808594 Z M 85.800781 12.808594 "></path><g clip-path="url(#clip1)" clip-rule="nonzero"><g clip-path="url(#clip2)" clip-rule="nonzero"><path style=" stroke:none;fill-rule:nonzero;fill:url(#linear0);" d="M 19.480469 -0.855469 L 26.566406 -0.855469 L 26.566406 6.167969 L 19.480469 6.167969 Z M 19.480469 -0.855469 "></path></g></g></g></svg> 