<?xml version="1.0" encoding="UTF-8"?> <svg xmlns="http://www.w3.org/2000/svg" xmlns:xlink="http://www.w3.org/1999/xlink" width="81pt" height="23pt" viewBox="0 0 81 23" version="1.1"><g id="surface1"><path style=" stroke:none;fill-rule:nonzero;fill:rgb(2.352941%,23.137255%,37.647059%);fill-opacity:1;" d="M 38.9375 17.992188 L 36.433594 17.992188 C 36.414062 17.992188 36.414062 17.992188 36.414062 17.972656 L 34.242188 15.316406 L 32.070312 17.972656 C 32.070312 17.992188 32.046875 17.992188 32.046875 17.992188 L 30.042969 17.992188 C 30.019531 17.992188 30.019531 17.992188 30.019531 17.972656 L 30.019531 17.953125 L 33.226562 14.03125 L 30.0625 10.128906 C 30.042969 10.109375 30.042969 10.109375 30.0625 10.089844 C 30.0625 10.070312 30.082031 10.070312 30.082031 10.070312 L 32.605469 10.070312 C 32.605469 10.070312 32.628906 10.070312 32.628906 10.089844 L 34.53125 12.453125 L 36.457031 10.089844 C 36.457031 10.070312 36.476562 10.070312 36.476562 10.070312 L 38.523438 10.070312 C 38.542969 10.070312 38.542969 10.089844 38.542969 10.089844 L 38.542969 10.128906 L 35.542969 13.71875 L 38.957031 17.953125 C 38.980469 17.972656 38.980469 17.972656 38.957031 17.972656 C 38.957031 17.992188 38.957031 17.992188 38.9375 17.992188 "></path><path style=" stroke:none;fill-rule:nonzero;fill:rgb(2.352941%,23.137255%,37.647059%);fill-opacity:1;" d="M 52.550781 11.457031 C 51.457031 11.457031 50.667969 12.144531 50.460938 13.304688 L 54.25 13.304688 L 54.25 13.222656 C 54.25 12.308594 53.542969 11.457031 52.550781 11.457031 M 56.214844 14.527344 C 56.191406 14.550781 56.191406 14.550781 56.191406 14.550781 L 50.421875 14.550781 C 50.542969 15.898438 51.414062 16.667969 52.820312 16.667969 C 53.691406 16.667969 54.621094 16.375 55.902344 15.671875 C 55.925781 15.648438 55.964844 15.671875 55.964844 15.691406 L 55.964844 17.453125 C 55.964844 17.476562 55.945312 17.476562 55.945312 17.476562 C 54.722656 17.992188 53.523438 18.347656 52.550781 18.347656 C 50.070312 18.347656 48.269531 16.542969 48.269531 14.050781 C 48.269531 11.5625 50.070312 9.757812 52.550781 9.757812 C 54.828125 9.757812 56.253906 11.292969 56.253906 13.386719 C 56.277344 13.71875 56.214844 14.507812 56.214844 14.527344 Z M 56.214844 14.527344 "></path><path style=" stroke:none;fill-rule:nonzero;fill:rgb(2.352941%,23.137255%,37.647059%);fill-opacity:1;" d="M 67.902344 8.429688 C 67.199219 8.429688 66.621094 7.871094 66.621094 7.164062 C 66.621094 6.4375 67.199219 5.855469 67.902344 5.855469 C 68.605469 5.855469 69.1875 6.4375 69.1875 7.164062 C 69.1875 7.871094 68.605469 8.429688 67.902344 8.429688 M 66.867188 17.992188 C 66.847656 17.992188 66.847656 17.972656 66.847656 17.972656 L 66.847656 10.089844 C 66.847656 10.070312 66.867188 10.070312 66.867188 10.070312 L 68.9375 10.070312 C 68.957031 10.070312 68.957031 10.089844 68.957031 10.089844 L 68.957031 17.953125 C 68.957031 17.972656 68.9375 17.972656 68.9375 17.972656 Z M 66.867188 17.992188 "></path><path style=" stroke:none;fill-rule:nonzero;fill:rgb(2.352941%,23.137255%,37.647059%);fill-opacity:1;" d="M 42.746094 16.8125 C 42.371094 16.8125 41.980469 16.75 41.542969 16.625 L 41.542969 11.582031 C 42.0625 11.417969 42.515625 11.335938 42.953125 11.335938 C 44.398438 11.335938 45.351562 12.414062 45.351562 13.988281 C 45.351562 15.710938 44.339844 16.8125 42.746094 16.8125 M 43.304688 9.738281 C 42.703125 9.738281 42.125 9.839844 41.503906 10.070312 L 39.433594 10.070312 C 39.414062 10.070312 39.414062 10.089844 39.414062 10.089844 L 39.414062 22.992188 C 40.035156 22.910156 40.800781 22.683594 41.542969 22.164062 L 41.542969 18.222656 C 42.0625 18.285156 42.476562 18.347656 42.890625 18.347656 C 45.722656 18.347656 47.566406 16.644531 47.566406 14.011719 C 47.542969 11.5 45.808594 9.738281 43.304688 9.738281 Z M 43.304688 9.738281 "></path><path style=" stroke:none;fill-rule:nonzero;fill:rgb(2.352941%,23.137255%,37.647059%);fill-opacity:1;" d="M 63.082031 16.167969 C 62.441406 16.5 61.863281 16.667969 61.324219 16.667969 C 60.042969 16.667969 59.277344 15.753906 59.277344 14.238281 C 59.277344 12.476562 60.269531 11.335938 61.78125 11.335938 C 62.191406 11.335938 62.605469 11.4375 63.101562 11.664062 L 63.101562 16.167969 Z M 63.082031 5.898438 L 63.082031 10.007812 C 62.484375 9.839844 61.945312 9.757812 61.386719 9.757812 C 58.925781 9.757812 57.0625 11.625 57.0625 14.09375 C 57.0625 16.5625 58.71875 18.347656 60.972656 18.347656 C 61.757812 18.347656 62.484375 18.140625 63.351562 17.703125 L 63.351562 18.429688 C 63.910156 18.324219 64.574219 18.097656 65.214844 17.640625 L 65.214844 5.070312 C 64.574219 5.152344 63.847656 5.359375 63.082031 5.898438 Z M 63.082031 5.898438 "></path><path style=" stroke:none;fill-rule:nonzero;fill:rgb(2.352941%,23.137255%,37.647059%);fill-opacity:1;" d="M 76.179688 16.148438 C 75.558594 16.519531 75.019531 16.6875 74.523438 16.6875 C 73.136719 16.6875 72.332031 15.773438 72.332031 14.257812 C 72.332031 12.515625 73.304688 11.355469 74.75 11.355469 C 75.125 11.355469 75.601562 11.5 76.179688 11.8125 Z M 78.308594 9.984375 C 78.308594 9.921875 78.269531 9.902344 78.207031 9.902344 L 76.511719 9.902344 C 76.449219 9.902344 76.40625 9.945312 76.40625 10.007812 L 76.40625 10.296875 L 76.367188 10.296875 C 75.578125 9.964844 74.917969 9.796875 74.277344 9.796875 C 71.957031 9.796875 70.136719 11.726562 70.136719 14.21875 C 70.136719 16.726562 71.773438 18.410156 74.191406 18.410156 C 74.835938 18.410156 75.683594 18.367188 76.449219 17.453125 L 76.449219 18.472656 C 77.007812 18.347656 77.648438 18.117188 78.269531 17.683594 Z M 78.308594 9.984375 "></path><path style=" stroke:none;fill-rule:nonzero;fill:rgb(2.352941%,23.137255%,37.647059%);fill-opacity:1;" d="M 24.269531 16.023438 L 29.484375 16.023438 C 29.398438 16.605469 29.214844 17.289062 28.757812 17.992188 L 23.316406 17.992188 C 22.65625 17.992188 22.097656 17.476562 22.035156 16.832031 C 22.035156 16.8125 22.035156 16.8125 22.015625 16.8125 L 22.015625 6.480469 C 22.015625 6.457031 22.015625 6.457031 22.035156 6.457031 C 22.097656 5.816406 22.632812 5.277344 23.316406 5.277344 L 29.460938 5.277344 C 29.378906 5.855469 29.171875 6.5625 28.738281 7.246094 L 24.25 7.246094 L 24.25 10.070312 L 28.675781 10.070312 C 28.695312 10.070312 28.695312 10.089844 28.695312 10.089844 L 28.695312 12.039062 C 28.695312 12.058594 28.675781 12.058594 28.675781 12.058594 L 24.25 12.058594 L 24.25 16.023438 Z M 24.269531 16.023438 "></path><path style=" stroke:none;fill-rule:nonzero;fill:rgb(2.352941%,23.137255%,37.647059%);fill-opacity:1;" d="M 17.75 18.160156 C 17.234375 18.160156 16.925781 17.746094 16.925781 17.269531 C 16.925781 16.75 17.296875 16.375 17.75 16.375 C 18.207031 16.375 18.578125 16.75 18.578125 17.269531 C 18.558594 17.785156 18.207031 18.160156 17.75 18.160156 M 17.75 16.25 C 17.234375 16.25 16.757812 16.644531 16.757812 17.246094 C 16.757812 17.808594 17.171875 18.242188 17.75 18.242188 C 18.269531 18.242188 18.722656 17.847656 18.722656 17.246094 C 18.722656 16.667969 18.25 16.25 17.75 16.25 Z M 17.75 16.25 "></path><path style=" stroke:none;fill-rule:nonzero;fill:rgb(2.352941%,23.137255%,37.647059%);fill-opacity:1;" d="M 17.503906 17.183594 L 17.503906 16.8125 L 17.75 16.8125 C 17.875 16.8125 18.019531 16.832031 18.019531 16.976562 C 18.019531 17.144531 17.875 17.164062 17.730469 17.164062 Z M 18.207031 17.019531 C 18.207031 16.769531 18.0625 16.6875 17.773438 16.6875 L 17.316406 16.6875 L 17.316406 17.847656 L 17.503906 17.847656 L 17.503906 17.351562 L 17.667969 17.351562 L 18 17.847656 L 18.207031 17.847656 L 17.875 17.328125 C 18.0625 17.308594 18.207031 17.226562 18.207031 17.019531 Z M 18.207031 17.019531 "></path><path style=" stroke:none;fill-rule:nonzero;fill:rgb(2.352941%,23.137255%,37.647059%);fill-opacity:1;" d="M 80.027344 11.375 C 79.511719 11.375 79.199219 10.960938 79.199219 10.460938 C 79.199219 9.945312 79.574219 9.570312 80.027344 9.570312 C 80.484375 9.570312 80.855469 9.945312 80.855469 10.460938 C 80.855469 11.003906 80.484375 11.375 80.027344 11.375 M 80.027344 9.464844 C 79.511719 9.464844 79.035156 9.859375 79.035156 10.460938 C 79.035156 11.023438 79.449219 11.457031 80.027344 11.457031 C 80.542969 11.457031 81 11.0625 81 10.460938 C 81 9.882812 80.542969 9.464844 80.027344 9.464844 Z M 80.027344 9.464844 "></path><path style=" stroke:none;fill-rule:nonzero;fill:rgb(2.352941%,23.137255%,37.647059%);fill-opacity:1;" d="M 79.800781 10.402344 L 79.800781 10.027344 L 80.046875 10.027344 C 80.171875 10.027344 80.316406 10.046875 80.316406 10.191406 C 80.316406 10.359375 80.171875 10.378906 80.027344 10.378906 Z M 80.484375 10.214844 C 80.484375 9.964844 80.339844 9.882812 80.046875 9.882812 L 79.59375 9.882812 L 79.59375 11.0625 L 79.78125 11.0625 L 79.78125 10.566406 L 79.964844 10.566406 L 80.277344 11.0625 L 80.484375 11.0625 L 80.152344 10.546875 C 80.359375 10.523438 80.484375 10.441406 80.484375 10.214844 Z M 80.484375 10.214844 "></path><path style=" stroke:none;fill-rule:nonzero;fill:rgb(2.352941%,23.137255%,37.647059%);fill-opacity:1;" d="M 11.007812 7.246094 L 10.632812 6.167969 L 7.425781 1.875 L 8.007812 1.726562 L 13.53125 6.519531 L 16.78125 5.585938 C 17.152344 5.484375 17.585938 5.460938 17.917969 5.460938 C 16.882812 3.242188 15.019531 1.4375 12.539062 0.546875 C 7.675781 -1.199219 2.296875 1.375 0.539062 6.273438 C 0 7.785156 -0.125 9.363281 0.101562 10.855469 L 7.902344 8.140625 Z M 11.007812 7.246094 "></path><path style=" stroke:none;fill-rule:nonzero;fill:rgb(2.352941%,23.137255%,37.647059%);fill-opacity:1;" d="M 18.289062 6.3125 C 18 6.519531 17.585938 6.75 17.171875 6.894531 L 13.902344 7.828125 L 11.710938 14.839844 L 11.152344 15.027344 L 11.605469 9.675781 L 11.359375 8.574219 L 8.316406 9.445312 L 0.207031 11.335938 C 0.847656 14.445312 3.0625 17.164062 6.269531 18.324219 C 11.152344 20.070312 16.53125 17.515625 18.269531 12.621094 C 19.015625 10.484375 18.953125 8.285156 18.289062 6.3125 "></path><path style=" stroke:none;fill-rule:nonzero;fill:rgb(100%,77.647059%,3.529412%);fill-opacity:1;" d="M 11.339844 8.554688 L 11.585938 9.675781 L 11.132812 15.027344 L 11.691406 14.839844 L 13.863281 7.828125 L 17.132812 6.894531 C 17.542969 6.769531 17.957031 6.519531 18.25 6.332031 C 18.144531 6.042969 18.042969 5.773438 17.898438 5.484375 C 17.566406 5.484375 17.132812 5.503906 16.757812 5.609375 L 13.511719 6.542969 L 7.984375 1.726562 L 7.40625 1.875 L 10.632812 6.167969 L 11.007812 7.246094 L 7.925781 8.117188 L 0.125 10.835938 C 0.144531 11.003906 0.1875 11.167969 0.207031 11.335938 L 8.277344 9.445312 Z M 11.339844 8.554688 "></path></g></svg> 