<?xml version="1.0" encoding="UTF-8"?> <svg xmlns="http://www.w3.org/2000/svg" xmlns:xlink="http://www.w3.org/1999/xlink" width="87pt" height="24pt" viewBox="0 0 87 24" version="1.1"><defs><clipPath id="clip1"><path d="M 0 5 L 16 5 L 16 23 L 0 23 Z M 0 5 "></path></clipPath><clipPath id="clip2"><path d="M 2.035156 13.316406 C 1.675781 11.894531 1.546875 10.449219 1.652344 9.070312 C 1.441406 9.285156 1.207031 9.515625 0.996094 9.730469 C 0.828125 11.171875 0.933594 12.617188 1.25 13.972656 C 1.503906 13.738281 1.78125 13.527344 2.035156 13.316406 M 2.226562 8.519531 C 2.097656 9.941406 2.246094 11.382812 2.628906 12.828125 C 3.179688 12.382812 3.753906 11.9375 4.347656 11.492188 C 3.878906 10.070312 3.625 8.648438 3.625 7.3125 C 3.136719 7.691406 2.671875 8.097656 2.226562 8.519531 Z M 5.066406 10.960938 C 5.894531 10.34375 6.785156 9.75 7.695312 9.179688 C 7.058594 7.820312 6.527344 6.546875 6.167969 5.445312 C 5.511719 5.867188 4.855469 6.335938 4.238281 6.824219 C 4.28125 8.160156 4.578125 9.582031 5.066406 10.960938 Z M 3.011719 20.125 C 2.988281 20.125 3.074219 20.210938 2.96875 20.105469 C 1.90625 18.917969 1.058594 17.539062 0.550781 15.96875 L 1.101562 15.542969 C 1.609375 17.15625 2.4375 18.683594 3.582031 19.957031 C 3.390625 20.019531 3.199219 20.0625 3.011719 20.125 Z M 5.234375 19.382812 C 3.984375 17.960938 3.03125 16.285156 2.417969 14.546875 C 2.140625 14.757812 1.867188 14.949219 1.589844 15.160156 C 2.164062 16.859375 3.074219 18.40625 4.28125 19.722656 C 4.601562 19.617188 4.917969 19.511719 5.234375 19.382812 Z M 3.03125 14.078125 C 3.710938 15.882812 4.75 17.601562 6.105469 19.042969 C 6.761719 18.789062 7.417969 18.515625 8.078125 18.21875 C 6.742188 16.605469 5.617188 14.714844 4.8125 12.785156 C 4.21875 13.230469 3.625 13.65625 3.03125 14.078125 Z M 9.117188 17.769531 C 10.046875 17.347656 10.960938 16.878906 11.890625 16.371094 C 10.597656 14.503906 9.390625 12.445312 8.375 10.472656 C 7.441406 11.066406 6.527344 11.660156 5.617188 12.277344 C 6.464844 14.25 7.714844 16.136719 9.117188 17.769531 Z M 13.207031 21.398438 C 13.863281 21.144531 14.519531 20.847656 15.179688 20.53125 C 14.351562 19.660156 13.503906 18.640625 12.675781 17.515625 C 11.828125 17.941406 10.9375 18.367188 10.003906 18.769531 C 11.042969 19.808594 12.148438 20.71875 13.207031 21.398438 Z M 7.039062 19.957031 C 8.097656 20.910156 9.304688 21.695312 10.640625 22.269531 C 11.152344 22.121094 11.679688 21.953125 12.1875 21.78125 C 11.042969 21.144531 9.964844 20.253906 8.96875 19.214844 C 8.332031 19.46875 7.695312 19.722656 7.039062 19.957031 Z M 9.496094 22.566406 C 8.226562 22.015625 7.101562 21.230469 6.105469 20.273438 C 5.789062 20.382812 5.46875 20.488281 5.152344 20.59375 C 6.148438 21.484375 7.269531 22.226562 8.523438 22.757812 C 8.839844 22.714844 9.179688 22.652344 9.496094 22.566406 Z M 3.921875 20.996094 L 4.453125 20.828125 C 5.40625 21.675781 6.527344 22.375 7.800781 22.90625 C 7.652344 22.925781 7.503906 22.96875 7.378906 22.992188 C 6.378906 22.589844 4.789062 21.695312 3.921875 20.996094 Z M 0.253906 14.800781 C -0.0195312 13.464844 -0.0625 12.0625 0.128906 10.707031 C 0.296875 10.515625 0.464844 10.324219 0.636719 10.132812 C 0.464844 11.53125 0.507812 12.976562 0.804688 14.355469 Z M 0.253906 14.800781 "></path></clipPath><linearGradient id="linear0" gradientUnits="userSpaceOnUse" x1="23.9639" y1="28.6801" x2="47.0229" y2="103.6659" gradientTransform="matrix(0.211988,0,0,0.212182,0,0.0541324)"><stop offset="0" style="stop-color:rgb(82.352941%,3.137255%,39.607843%);stop-opacity:1;"></stop><stop offset="1" style="stop-color:rgb(96.078431%,63.137255%,68.627451%);stop-opacity:1;"></stop></linearGradient><clipPath id="clip3"><path d="M 0 0 L 25 0 L 25 24 L 0 24 Z M 0 0 "></path></clipPath><clipPath id="clip4"><path d="M 17.382812 22.84375 C 16.980469 23.011719 16.578125 23.183594 16.152344 23.308594 C 14.753906 23.351562 13.441406 23.183594 12.210938 22.820312 C 12.632812 22.695312 13.078125 22.546875 13.503906 22.398438 C 14.753906 22.90625 16.089844 23.074219 17.382812 22.84375 M 17.785156 22.671875 L 17.550781 22.777344 C 16.597656 22.863281 15.515625 22.589844 14.394531 22.035156 C 14.945312 21.804688 15.476562 21.570312 16.003906 21.292969 C 16.597656 21.886719 17.214844 22.355469 17.785156 22.671875 Z M 24.273438 15.035156 C 23.722656 17.21875 22.472656 19.109375 20.839844 20.59375 C 21.917969 19.214844 22.621094 17.769531 22.980469 16.328125 C 23.234375 16.09375 23.46875 15.863281 23.679688 15.628906 C 23.425781 16.667969 23.023438 17.6875 22.429688 18.664062 C 23.171875 17.558594 23.679688 16.433594 23.996094 15.289062 L 24.273438 15.035156 C 24.292969 14.929688 24.292969 15.011719 24.273438 15.035156 Z M 20.753906 20.699219 C 20.351562 21.058594 19.925781 21.398438 19.480469 21.695312 C 20.394531 20.65625 20.902344 19.40625 21.09375 18.003906 C 21.472656 17.6875 21.855469 17.367188 22.214844 17.050781 C 21.941406 18.257812 21.453125 19.488281 20.753906 20.699219 Z M 19.460938 21.695312 C 19.25 21.84375 19.035156 21.992188 18.804688 22.121094 C 18.738281 21.527344 18.550781 20.828125 18.273438 20.019531 C 19.015625 19.554688 19.714844 19.066406 20.394531 18.554688 C 20.351562 19.808594 20.054688 20.890625 19.460938 21.695312 Z M 19.585938 13.316406 C 20.03125 14.714844 20.308594 16.074219 20.394531 17.324219 C 19.585938 17.941406 18.761719 18.515625 17.933594 19.023438 C 17.511719 17.941406 16.980469 16.730469 16.34375 15.480469 C 17.488281 14.757812 18.570312 14.035156 19.585938 13.316406 Z M 21.175781 16.710938 C 21.175781 15.394531 20.921875 14.015625 20.476562 12.636719 C 21.070312 12.191406 21.644531 11.746094 22.195312 11.277344 C 22.511719 12.65625 22.621094 14.101562 22.472656 15.566406 C 22.046875 15.96875 21.621094 16.351562 21.175781 16.710938 Z M 24.398438 9.496094 C 24.613281 10.300781 24.675781 11.171875 24.675781 12.042969 C 24.675781 12.488281 24.652344 12.933594 24.589844 13.378906 C 24.503906 13.484375 24.421875 13.589844 24.316406 13.699219 C 24.464844 12.359375 24.359375 11.023438 24.039062 9.75 L 24.378906 9.453125 C 24.398438 9.453125 24.359375 9.328125 24.398438 9.496094 Z M 23.253906 14.820312 C 23.402344 13.441406 23.253906 12.042969 22.894531 10.726562 C 23.148438 10.515625 23.402344 10.28125 23.65625 10.070312 C 23.976562 11.363281 24.101562 12.722656 23.953125 14.078125 C 23.742188 14.335938 23.488281 14.566406 23.253906 14.820312 Z M 21.621094 4.148438 C 22.703125 5.335938 23.550781 6.757812 24.082031 8.328125 L 23.699219 8.625 C 23.128906 7.035156 22.238281 5.570312 21.09375 4.320312 C 21.261719 4.253906 21.453125 4.191406 21.621094 4.148438 Z M 22.511719 9.515625 C 21.855469 7.777344 20.839844 6.1875 19.566406 4.828125 C 19.925781 4.699219 20.265625 4.574219 20.625 4.46875 C 21.835938 5.761719 22.746094 7.289062 23.339844 8.902344 C 23.0625 9.113281 22.789062 9.328125 22.511719 9.515625 Z M 20.011719 11.34375 C 19.226562 9.433594 18.105469 7.566406 16.769531 5.953125 C 17.488281 5.632812 18.1875 5.335938 18.910156 5.082031 C 20.203125 6.503906 21.21875 8.203125 21.835938 10.027344 C 21.242188 10.472656 20.625 10.898438 20.011719 11.34375 Z M 15.898438 6.335938 C 17.234375 8.03125 18.316406 9.984375 19.101562 11.957031 C 17.976562 12.722656 16.851562 13.464844 15.6875 14.164062 C 14.628906 12.148438 13.417969 10.089844 12.1875 8.203125 C 13.417969 7.542969 14.667969 6.90625 15.898438 6.335938 Z M 18.675781 3.9375 C 17.574219 2.941406 16.34375 2.113281 15.050781 1.519531 C 15.410156 1.433594 15.773438 1.347656 16.109375 1.285156 C 17.445312 1.859375 18.675781 2.644531 19.714844 3.597656 C 19.375 3.703125 19.015625 3.832031 18.675781 3.9375 Z M 15.898438 4.976562 C 14.859375 3.875 13.714844 2.960938 12.527344 2.28125 C 13.144531 2.070312 13.738281 1.878906 14.351562 1.710938 C 15.6875 2.304688 16.9375 3.152344 18.019531 4.171875 C 17.296875 4.425781 16.597656 4.699219 15.898438 4.976562 Z M 11.746094 2.558594 C 12.929688 3.257812 14.035156 4.214844 15.050781 5.316406 C 13.757812 5.867188 12.550781 6.441406 11.425781 7.035156 C 10.578125 5.804688 9.75 4.699219 8.988281 3.789062 C 9.898438 3.320312 10.832031 2.917969 11.746094 2.558594 Z M 17.363281 1.09375 C 18.632812 1.601562 19.757812 2.367188 20.753906 3.28125 L 20.222656 3.449219 C 19.207031 2.496094 18.019531 1.730469 16.769531 1.179688 L 17.339844 1.09375 C 17.320312 1.09375 17.320312 1.09375 17.363281 1.09375 Z M 12.316406 0.0546875 C 13.800781 0.0546875 14.648438 0.222656 15.730469 0.519531 C 15.558594 0.542969 15.285156 0.585938 15.15625 0.605469 C 13.96875 0.265625 12.699219 0.140625 11.40625 0.246094 C 12.484375 0.289062 13.523438 0.457031 14.519531 0.734375 C 14.203125 0.796875 13.863281 0.882812 13.546875 0.945312 C 11.914062 0.4375 10.238281 0.308594 8.605469 0.667969 C 10.046875 0.542969 11.46875 0.710938 12.824219 1.136719 C 12.296875 1.285156 11.765625 1.453125 11.257812 1.644531 C 9.921875 1.09375 8.542969 0.902344 7.230469 1.179688 C 8.796875 0.457031 10.832031 0.0546875 12.316406 0.0546875 Z M 6.527344 1.539062 C 6.71875 1.433594 6.933594 1.328125 7.121094 1.242188 C 8.289062 1.222656 9.433594 1.476562 10.515625 1.941406 C 9.730469 2.261719 8.988281 2.621094 8.265625 3.003906 C 7.609375 2.304688 7.015625 1.792969 6.527344 1.539062 Z M 2.394531 5.148438 C 3.308594 3.894531 4.472656 2.8125 5.765625 1.984375 C 5.554688 2.496094 5.597656 3.34375 5.871094 4.425781 C 5.320312 4.785156 4.769531 5.1875 4.261719 5.570312 C 4.367188 4.46875 4.664062 3.40625 5.195312 2.410156 C 4.347656 3.40625 3.859375 4.636719 3.6875 6.015625 C 3.265625 6.355469 2.839844 6.714844 2.4375 7.078125 C 2.777344 5.613281 3.414062 4.253906 4.429688 3.066406 C 3.09375 4.296875 2.269531 5.890625 1.886719 7.609375 C 1.675781 7.796875 1.484375 7.988281 1.292969 8.179688 C 1.527344 7.164062 1.886719 6.144531 2.394531 5.148438 Z M 0.488281 9.03125 C 0.890625 7.648438 1.527344 6.355469 2.351562 5.210938 C 1.695312 6.25 1.230469 7.375 0.933594 8.542969 C 0.785156 8.691406 0.613281 8.859375 0.488281 9.03125 Z M 15.960938 23.371094 C 13.671875 24.074219 11.191406 24.117188 8.859375 23.523438 C 9.117188 23.5 9.347656 23.457031 9.519531 23.4375 C 10.789062 23.734375 12.210938 23.882812 13.738281 23.796875 C 12.464844 23.820312 11.257812 23.648438 10.113281 23.332031 C 10.429688 23.265625 10.746094 23.203125 11.066406 23.117188 C 12.570312 23.542969 14.203125 23.648438 15.960938 23.371094 Z M 15.960938 23.371094 "></path></clipPath><linearGradient id="linear1" gradientUnits="userSpaceOnUse" x1="31.9671" y1="6.4555" x2="88.4703" y2="110.2207" gradientTransform="matrix(0.211988,0,0,0.212182,0,0.0541324)"><stop offset="0" style="stop-color:rgb(41.568627%,42.745098%,44.313725%);stop-opacity:1;"></stop><stop offset="1" style="stop-color:rgb(73.333333%,72.941176%,74.117647%);stop-opacity:1;"></stop></linearGradient></defs><g id="surface1"><path style=" stroke:none;fill-rule:evenodd;fill:rgb(41.568627%,42.745098%,44.313725%);fill-opacity:1;" d="M 57.851562 3.195312 L 57.851562 12.617188 C 57.851562 12.765625 58.148438 12.699219 58.574219 12.699219 C 58.722656 12.699219 58.65625 12.402344 58.65625 12.105469 C 58.65625 11.871094 58.65625 11.617188 58.65625 11.382812 C 58.65625 11.382812 58.65625 11.382812 58.679688 11.40625 L 58.699219 11.46875 C 59.675781 13.484375 63.234375 13.464844 64.148438 10.855469 C 64.761719 9.113281 64.402344 6.589844 62.410156 5.78125 C 61.457031 5.402344 60.164062 5.527344 59.3125 6.230469 C 59.082031 6.441406 58.933594 6.632812 58.804688 6.886719 L 58.742188 6.992188 L 58.742188 3.535156 C 58.742188 3.023438 58.890625 3.109375 57.9375 3.109375 C 57.871094 3.109375 57.851562 3.128906 57.851562 3.195312 M 78.816406 7.054688 C 78.691406 6.90625 78.773438 6.78125 78.246094 6.269531 C 77.90625 5.929688 77.375 5.699219 76.886719 5.613281 C 75.996094 5.464844 74.960938 5.65625 74.28125 6.292969 C 73.113281 7.375 72.882812 9.261719 73.347656 10.726562 C 74.046875 12.847656 76.292969 13.402344 77.882812 12.445312 C 78.371094 12.148438 78.5625 11.914062 78.816406 11.46875 C 78.816406 11.46875 78.816406 11.449219 78.839844 11.449219 C 78.878906 11.382812 78.859375 11.425781 78.878906 11.40625 L 78.878906 12.425781 C 78.878906 12.765625 78.773438 12.699219 79.6875 12.699219 L 79.6875 3.109375 L 78.816406 3.109375 Z M 76.359375 12.167969 C 75.59375 12.167969 75.109375 11.871094 74.640625 11.34375 C 73.855469 10.410156 73.792969 8.328125 74.597656 7.183594 C 75.023438 6.566406 75.574219 6.3125 76.441406 6.3125 C 77.609375 6.3125 78.371094 7.078125 78.648438 8.054688 C 79.15625 9.707031 78.605469 12.167969 76.359375 12.167969 Z M 47.230469 9.199219 C 47.230469 11.34375 48.3125 12.871094 50.453125 12.871094 C 51.300781 12.871094 51.980469 12.699219 52.574219 12.191406 C 52.679688 12.105469 52.65625 12.128906 52.742188 12.042969 C 52.933594 11.808594 52.976562 11.808594 53.1875 11.425781 C 53.316406 11.195312 53.546875 10.621094 53.570312 10.386719 C 52.722656 10.386719 52.722656 10.300781 52.65625 10.515625 C 52.53125 10.9375 52.320312 11.34375 52 11.640625 C 51.214844 12.359375 49.625 12.382812 48.800781 11.40625 C 48.355469 10.898438 48.164062 10.195312 48.164062 9.476562 L 53.613281 9.476562 C 53.613281 8.816406 53.589844 8.222656 53.359375 7.609375 C 53.0625 6.84375 52.550781 6.121094 51.765625 5.804688 C 51.578125 5.71875 51.34375 5.65625 51.132812 5.613281 C 50.113281 5.421875 48.992188 5.675781 48.269531 6.417969 C 48.078125 6.609375 47.867188 6.90625 47.738281 7.164062 C 47.632812 7.351562 47.570312 7.542969 47.484375 7.757812 C 47.335938 8.136719 47.230469 8.691406 47.230469 9.199219 Z M 50.410156 6.3125 C 51.214844 6.3125 51.621094 6.546875 52.085938 7.035156 C 52.425781 7.394531 52.699219 8.074219 52.699219 8.730469 L 48.140625 8.730469 C 48.140625 8.246094 48.480469 7.460938 48.820312 7.078125 C 49.054688 6.800781 48.863281 7.015625 49.097656 6.800781 C 49.414062 6.484375 49.902344 6.3125 50.410156 6.3125 Z M 65.652344 9.199219 C 65.652344 11.34375 66.734375 12.871094 68.875 12.871094 C 69.722656 12.871094 70.402344 12.699219 70.996094 12.191406 C 71.25 11.980469 71.460938 11.703125 71.609375 11.425781 C 71.738281 11.195312 71.96875 10.621094 71.992188 10.386719 C 70.867188 10.386719 71.164062 10.300781 71.015625 10.707031 C 70.65625 11.617188 70.019531 12.167969 68.917969 12.167969 C 68.21875 12.167969 67.625 11.894531 67.199219 11.40625 C 66.753906 10.898438 66.5625 10.195312 66.5625 9.476562 L 72.011719 9.476562 C 72.011719 8.605469 71.925781 7.757812 71.503906 7.035156 C 71.269531 6.632812 71.078125 6.417969 70.71875 6.144531 C 70.359375 5.867188 70.019531 5.71875 69.554688 5.632812 C 68.535156 5.445312 67.414062 5.699219 66.691406 6.441406 C 66.605469 6.527344 66.5625 6.589844 66.5 6.675781 C 65.929688 7.246094 65.652344 8.394531 65.652344 9.199219 Z M 68.746094 6.3125 C 69.574219 6.3125 69.976562 6.503906 70.464844 7.035156 C 70.804688 7.394531 71.078125 8.074219 71.078125 8.730469 L 66.5625 8.730469 C 66.585938 8.179688 66.945312 7.375 67.347656 6.949219 C 67.625 6.609375 68.238281 6.3125 68.746094 6.3125 Z M 27.644531 3.195312 L 27.644531 12.617188 C 27.644531 12.679688 27.664062 12.699219 27.726562 12.699219 C 28.703125 12.699219 28.535156 12.785156 28.535156 12.277344 L 28.535156 8.5 C 28.535156 7.351562 29.425781 6.292969 30.609375 6.292969 C 31.3125 6.292969 31.839844 6.398438 32.199219 6.929688 C 32.519531 7.417969 32.519531 7.882812 32.519531 8.667969 L 32.519531 12.253906 C 32.519531 12.765625 32.371094 12.679688 33.324219 12.679688 C 33.386719 12.679688 33.410156 12.65625 33.410156 12.59375 L 33.410156 8.03125 C 33.410156 7.714844 33.347656 7.332031 33.28125 7.078125 C 32.816406 5.402344 30.652344 5.335938 29.65625 5.824219 C 29.382812 5.953125 29.234375 6.058594 29 6.269531 C 28.789062 6.441406 28.703125 6.652344 28.597656 6.824219 L 28.535156 6.90625 L 28.535156 3.535156 C 28.535156 3.023438 28.683594 3.109375 27.726562 3.109375 C 27.664062 3.109375 27.644531 3.128906 27.644531 3.195312 Z M 34.976562 9.050781 C 34.976562 9.984375 35.085938 10.621094 35.550781 11.382812 C 35.65625 11.554688 35.804688 11.746094 35.933594 11.871094 C 36.609375 12.550781 37.351562 12.871094 38.371094 12.871094 C 39.113281 12.871094 39.832031 12.636719 40.363281 12.253906 C 40.617188 12.0625 40.828125 11.851562 41 11.597656 C 41.910156 10.367188 41.929688 8.519531 41.210938 7.140625 C 41.105469 6.949219 40.976562 6.800781 40.851562 6.632812 C 40.488281 6.1875 39.789062 5.78125 39.21875 5.632812 C 38.941406 5.570312 38.710938 5.570312 38.433594 5.527344 C 38.304688 5.507812 37.796875 5.570312 37.671875 5.59375 C 36.039062 5.890625 34.976562 7.4375 34.976562 9.050781 Z M 38.371094 12.167969 C 37.820312 12.167969 37.289062 12 36.90625 11.703125 C 36.25 11.171875 35.867188 10.324219 35.867188 9.453125 C 35.867188 8.730469 35.910156 8.160156 36.292969 7.523438 C 36.78125 6.714844 37.375 6.3125 38.453125 6.3125 C 38.878906 6.3125 39.175781 6.441406 39.472656 6.589844 C 39.621094 6.675781 39.726562 6.757812 39.855469 6.863281 C 40.40625 7.289062 40.808594 8.308594 40.808594 9.242188 C 40.808594 10.113281 40.53125 10.769531 40.152344 11.277344 C 39.8125 11.722656 39.175781 12.167969 38.371094 12.167969 Z M 86.109375 10.832031 C 86.109375 11.34375 85.8125 11.660156 85.496094 11.832031 C 84.222656 12.53125 82.101562 12.085938 82.101562 10.429688 L 81.191406 10.429688 C 81.210938 11.066406 81.53125 11.871094 82.039062 12.253906 C 83.375 13.273438 86.195312 13.039062 86.851562 11.492188 C 86.9375 11.277344 86.957031 11.109375 86.957031 10.917969 L 86.957031 10.621094 C 86.957031 9.835938 86.300781 9.285156 85.644531 9.03125 C 85.304688 8.902344 84.476562 8.753906 84.054688 8.648438 C 83.4375 8.5 82.316406 8.285156 82.316406 7.4375 C 82.316406 7.015625 82.527344 6.714844 82.78125 6.546875 C 83.609375 6.039062 85.515625 6.101562 85.792969 7.4375 C 85.875 7.820312 85.558594 7.757812 86.703125 7.757812 C 86.703125 5.378906 83.585938 4.933594 81.996094 6.164062 C 81.804688 6.3125 81.617188 6.589844 81.53125 6.800781 C 81.296875 7.394531 81.402344 8.097656 81.742188 8.476562 C 81.933594 8.691406 82.082031 8.796875 82.359375 8.945312 C 83.269531 9.410156 84.117188 9.390625 84.945312 9.664062 C 85.515625 9.898438 86.109375 10.175781 86.109375 10.832031 Z M 43.777344 5.761719 L 42.546875 5.761719 L 42.546875 6.527344 L 43.777344 6.527344 L 43.777344 11.53125 C 43.777344 11.722656 43.839844 11.9375 43.882812 12.085938 C 44.179688 12.953125 45.472656 12.742188 46.085938 12.742188 L 46.085938 11.980469 C 46.023438 12 44.960938 12.167969 44.773438 11.789062 C 44.6875 11.617188 44.644531 11.277344 44.644531 11.003906 L 44.644531 6.527344 L 46.085938 6.527344 L 46.085938 5.761719 L 44.644531 5.761719 L 44.644531 3.683594 L 43.777344 3.683594 Z M 55.03125 12.699219 L 55.902344 12.699219 L 55.902344 3.109375 L 55.03125 3.109375 Z M 61.222656 12.167969 C 60.140625 12.167969 59.3125 11.597656 58.953125 10.597656 C 58.679688 9.816406 58.679688 8.710938 58.933594 7.925781 C 59.292969 6.84375 60.097656 6.3125 61.265625 6.3125 C 61.941406 6.3125 62.515625 6.632812 62.898438 7.140625 C 64.042969 8.648438 63.679688 12.167969 61.222656 12.167969 Z M 61.222656 12.167969 "></path><g clip-path="url(#clip1)" clip-rule="nonzero"><g clip-path="url(#clip2)" clip-rule="nonzero"><path style=" stroke:none;fill-rule:nonzero;fill:url(#linear0);" d="M -0.0625 5.421875 L 15.199219 5.421875 L 15.199219 22.96875 L -0.0625 22.96875 Z M -0.0625 5.421875 "></path></g></g><g clip-path="url(#clip3)" clip-rule="nonzero"><g clip-path="url(#clip4)" clip-rule="nonzero"><path style=" stroke:none;fill-rule:nonzero;fill:url(#linear1);" d="M 0.488281 0.0546875 L 24.695312 0.0546875 L 24.695312 24.117188 L 0.488281 24.117188 Z M 0.488281 0.0546875 "></path></g></g><path style=" stroke:none;fill-rule:nonzero;fill:rgb(82.352941%,2.745098%,40.784314%);fill-opacity:1;" d="M 55.816406 15.160156 C 56.304688 15.160156 57.003906 15.417969 57.003906 16.117188 C 57.003906 16.921875 56.199219 17.050781 55.835938 17.050781 C 55.648438 17.050781 55.414062 17.027344 55.222656 17.007812 L 55.222656 15.183594 C 55.5 15.160156 55.625 15.160156 55.816406 15.160156 M 55.222656 19.828125 L 55.222656 18.300781 C 55.433594 18.324219 55.753906 18.324219 55.878906 18.324219 C 57.257812 18.324219 58.464844 17.8125 58.464844 16.328125 C 58.464844 14.800781 57.492188 13.886719 55.6875 13.886719 C 55.222656 13.886719 54.097656 13.910156 53.78125 13.910156 L 53.78125 19.828125 Z M 52.277344 13.910156 L 50.878906 13.910156 L 50.878906 17.113281 C 50.878906 18.070312 50.75 18.664062 49.964844 18.664062 C 49.054688 18.664062 48.90625 17.960938 48.90625 17.027344 L 48.90625 13.910156 L 47.507812 13.910156 L 47.507812 17.324219 C 47.507812 19.066406 48.523438 19.9375 49.964844 19.9375 C 51.175781 19.9375 52.277344 19.191406 52.277344 17.390625 Z M 41.824219 16.859375 C 41.824219 15.863281 42.503906 15.203125 43.394531 15.203125 C 44.261719 15.203125 44.960938 15.863281 44.960938 16.859375 C 44.960938 17.769531 44.433594 18.515625 43.394531 18.515625 C 42.523438 18.515625 41.824219 17.792969 41.824219 16.859375 Z M 27.644531 16.859375 C 27.644531 18.746094 28.9375 19.914062 30.652344 19.914062 C 32.371094 19.914062 33.664062 18.640625 33.664062 16.859375 C 33.664062 16.6875 33.640625 16.5 33.621094 16.351562 L 30.738281 16.351562 L 30.738281 17.664062 L 32.011719 17.664062 C 31.796875 18.175781 31.332031 18.492188 30.675781 18.492188 C 29.847656 18.492188 29.167969 17.769531 29.167969 16.835938 C 29.167969 15.839844 29.804688 15.183594 30.675781 15.183594 C 31.183594 15.183594 31.648438 15.4375 31.902344 15.863281 L 33.558594 15.863281 C 33.199219 14.546875 32.074219 13.78125 30.675781 13.78125 C 28.851562 13.804688 27.644531 15.140625 27.644531 16.859375 Z M 33.070312 19.9375 L 33.050781 19.851562 L 33.070312 19.851562 Z M 36.800781 15.269531 C 37.289062 15.269531 37.96875 15.289062 37.988281 15.988281 C 38.007812 16.878906 37.183594 16.835938 36.824219 16.835938 C 36.632812 16.835938 36.398438 16.816406 36.207031 16.796875 L 36.207031 15.269531 C 36.484375 15.269531 36.609375 15.269531 36.800781 15.269531 Z M 36.207031 19.9375 L 36.207031 18.089844 C 36.417969 18.109375 36.738281 18.109375 36.863281 18.109375 C 36.90625 18.109375 36.949219 18.109375 36.992188 18.109375 L 38.050781 19.9375 L 39.894531 19.9375 L 38.519531 17.75 C 39.070312 17.453125 39.429688 16.921875 39.429688 16.117188 C 39.429688 14.566406 38.453125 13.996094 36.652344 13.996094 C 36.1875 13.996094 35.0625 14.015625 34.746094 14.015625 L 34.746094 19.9375 Z M 40.257812 16.859375 C 40.257812 18.746094 41.59375 19.914062 43.394531 19.914062 C 45.195312 19.914062 46.53125 18.640625 46.53125 16.859375 C 46.53125 14.96875 45.195312 13.804688 43.394531 13.804688 C 41.507812 13.804688 40.257812 15.140625 40.257812 16.859375 Z M 40.257812 16.859375 "></path></g></svg> 