<?xml version="1.0" encoding="UTF-8"?> <svg xmlns="http://www.w3.org/2000/svg" xmlns:xlink="http://www.w3.org/1999/xlink" width="114pt" height="19pt" viewBox="0 0 114 19" version="1.1"><g id="surface1"><path style=" stroke:none;fill-rule:nonzero;fill:rgb(0%,28.627451%,50.196078%);fill-opacity:1;" d="M 16.1875 11.890625 C 16.1875 13.890625 16.890625 14.851562 18.292969 14.851562 C 18.957031 14.851562 19.4375 14.59375 19.808594 14.035156 C 20.175781 13.519531 20.359375 12.777344 20.359375 11.851562 C 20.359375 9.890625 19.660156 8.925781 18.257812 8.925781 C 17.628906 8.925781 17.113281 9.183594 16.742188 9.703125 C 16.375 10.257812 16.1875 11 16.1875 11.890625 M 14.710938 11.890625 C 14.710938 10.667969 15.042969 9.667969 15.710938 8.925781 C 16.375 8.183594 17.222656 7.816406 18.292969 7.816406 C 19.4375 7.816406 20.285156 8.183594 20.914062 8.890625 C 21.542969 9.628906 21.835938 10.628906 21.835938 11.890625 C 21.835938 13.148438 21.503906 14.183594 20.878906 14.925781 C 20.25 15.667969 19.363281 16.035156 18.257812 16.035156 C 17.113281 16.035156 16.261719 15.667969 15.636719 14.925781 C 15.007812 14.183594 14.710938 13.183594 14.710938 11.890625 Z M 8.214844 9.628906 L 8.214844 14.222656 C 8.214844 14.296875 8.398438 14.445312 8.730469 14.628906 C 9.0625 14.816406 9.359375 14.890625 9.542969 14.890625 C 10.503906 14.890625 11.167969 14.667969 11.609375 14.183594 C 11.980469 13.703125 12.203125 12.925781 12.203125 11.851562 C 12.203125 10.964844 11.945312 10.257812 11.464844 9.742188 C 10.984375 9.222656 10.320312 9 9.507812 9 C 9.324219 9 9.101562 9.074219 8.804688 9.222656 C 8.511719 9.371094 8.289062 9.480469 8.214844 9.628906 Z M 7.992188 15.332031 L 7.511719 16.035156 L 6.8125 16.035156 L 6.8125 4.703125 L 8.214844 4.703125 L 8.214844 8.519531 C 8.363281 8.332031 8.585938 8.183594 8.953125 8 C 9.324219 7.851562 9.691406 7.777344 10.023438 7.777344 C 11.09375 7.777344 11.980469 8.148438 12.644531 8.890625 C 13.308594 9.628906 13.640625 10.59375 13.640625 11.742188 C 13.640625 13.074219 13.308594 14.109375 12.644531 14.851562 C 11.980469 15.59375 11.058594 16 9.914062 16 C 9.542969 16 9.175781 15.925781 8.804688 15.777344 C 8.472656 15.703125 8.179688 15.519531 7.992188 15.332031 Z M 1.3125 9.074219 L 0.390625 9.074219 L 0.390625 7.964844 L 1.3125 7.964844 L 1.3125 6.296875 L 2.714844 5.742188 L 2.714844 7.925781 L 4.890625 7.925781 L 4.890625 9.035156 L 2.714844 9.035156 L 2.714844 12.964844 C 2.714844 13.628906 2.824219 14.109375 3.046875 14.371094 C 3.269531 14.667969 3.636719 14.777344 4.117188 14.777344 C 4.488281 14.777344 4.855469 14.703125 5.226562 14.519531 L 5.445312 15.742188 C 4.855469 15.890625 4.226562 15.964844 3.527344 15.964844 C 2.898438 15.964844 2.382812 15.742188 1.9375 15.257812 C 1.496094 14.777344 1.273438 14.183594 1.273438 13.480469 L 1.273438 9.074219 Z M 1.3125 9.074219 "></path><path style=" stroke:none;fill-rule:evenodd;fill:rgb(98.039216%,66.666667%,19.215686%);fill-opacity:1;" d="M 110.066406 0 C 111.617188 0 112.910156 1.257812 112.910156 2.851562 C 112.910156 4.40625 111.65625 5.703125 110.066406 5.703125 C 108.515625 5.703125 107.226562 4.445312 107.226562 2.851562 C 107.261719 1.257812 108.515625 0 110.066406 0 "></path><path style=" stroke:none;fill-rule:evenodd;fill:rgb(95.686275%,83.529412%,66.27451%);fill-opacity:1;" d="M 109.882812 5.035156 C 109.917969 5.074219 109.882812 5.148438 110.105469 5.148438 C 110.25 5.148438 110.324219 5.148438 110.4375 5.074219 L 110.695312 4.742188 C 110.730469 4.667969 110.695312 4.703125 110.65625 4.628906 C 110.730469 4.59375 110.953125 4.480469 110.953125 4.40625 C 110.988281 4.183594 110.804688 4.074219 110.953125 3.925781 L 111.175781 3.667969 C 111.210938 3.628906 111.25 3.628906 111.285156 3.59375 C 111.394531 3.519531 111.582031 3.222656 111.507812 3.074219 C 111.433594 3.074219 111.433594 3.109375 111.324219 3.148438 C 111.25 3.148438 111.175781 3.183594 111.175781 3.222656 C 111.101562 3.183594 111.101562 3.222656 111.0625 3.148438 L 111.0625 3.109375 C 111.027344 3.035156 110.953125 2.964844 110.878906 3 C 110.84375 2.777344 110.878906 3 110.769531 2.742188 C 110.730469 2.667969 110.511719 2.445312 110.472656 2.332031 C 110.621094 2.296875 110.472656 2.371094 110.585938 2.296875 C 110.621094 2.40625 110.730469 2.554688 110.730469 2.554688 C 110.953125 2.742188 110.730469 2.59375 110.878906 2.742188 C 110.917969 2.777344 110.988281 2.816406 111.027344 2.851562 C 111.027344 2.964844 111.027344 2.925781 111.101562 3.035156 C 111.285156 3.074219 111.394531 2.925781 111.542969 2.816406 C 111.65625 2.742188 111.691406 2.777344 111.730469 2.667969 L 111.800781 2.445312 C 111.800781 2.40625 111.730469 2.371094 111.691406 2.371094 C 111.65625 2.332031 111.617188 2.296875 111.617188 2.296875 C 111.542969 2.371094 111.582031 2.445312 111.433594 2.40625 C 111.324219 2.371094 111.359375 2.332031 111.285156 2.296875 C 111.210938 2.222656 111.210938 2.296875 111.210938 2.148438 C 111.359375 2.148438 111.359375 2.257812 111.46875 2.296875 C 111.582031 2.296875 111.46875 2.257812 111.582031 2.257812 C 111.65625 2.257812 111.617188 2.257812 111.691406 2.296875 C 111.839844 2.332031 111.875 2.296875 111.949219 2.257812 C 111.988281 2.257812 112.132812 2.332031 112.132812 2.332031 C 112.132812 2.332031 112.207031 2.480469 112.246094 2.371094 L 112.246094 2.332031 C 112.28125 2.480469 112.28125 2.519531 112.355469 2.628906 C 112.394531 2.703125 112.429688 2.851562 112.503906 2.890625 C 112.539062 2.851562 112.503906 2.890625 112.539062 2.816406 C 112.578125 2.703125 112.503906 2.667969 112.539062 2.480469 C 112.578125 2.40625 112.578125 2.109375 112.613281 2.074219 C 112.613281 2.074219 112.613281 2.035156 112.6875 2.148438 L 112.800781 2.40625 C 112.800781 2.445312 112.800781 2.519531 112.835938 2.554688 C 112.871094 2.296875 112.6875 1.851562 112.578125 1.628906 C 112.46875 1.40625 112.246094 1.035156 112.097656 0.925781 L 111.875 0.703125 C 111.542969 0.40625 111.027344 0.109375 110.546875 0.0742188 C 110.65625 0.148438 110.730469 0.0742188 110.769531 0.183594 L 110.621094 0.183594 L 110.730469 0.296875 C 110.65625 0.332031 110.621094 0.257812 110.65625 0.371094 C 110.65625 0.40625 110.695312 0.40625 110.769531 0.40625 C 110.65625 0.40625 110.730469 0.40625 110.65625 0.445312 C 110.398438 0.554688 110.546875 0.480469 110.4375 0.480469 C 110.4375 0.554688 110.4375 0.519531 110.4375 0.554688 L 110.324219 0.59375 C 110.324219 0.59375 110.289062 0.554688 110.25 0.519531 C 110.25 0.519531 110.324219 0.519531 110.324219 0.519531 C 110.363281 0.519531 110.289062 0.519531 110.363281 0.519531 L 110.398438 0.519531 C 110.363281 0.445312 110.363281 0.480469 110.179688 0.40625 C 110.066406 0.371094 109.992188 0.40625 109.882812 0.445312 L 109.550781 0.667969 L 109.511719 0.777344 L 109.660156 0.742188 C 109.660156 0.777344 109.699219 0.851562 109.734375 0.890625 C 109.808594 0.890625 109.808594 0.851562 109.847656 0.777344 C 109.917969 0.667969 109.882812 0.703125 109.847656 0.59375 C 109.917969 0.59375 109.917969 0.59375 109.957031 0.519531 C 109.992188 0.480469 109.917969 0.480469 110.03125 0.519531 C 109.992188 0.59375 109.957031 0.59375 109.957031 0.703125 C 110.140625 0.703125 110.140625 0.667969 110.140625 0.742188 L 109.992188 0.742188 C 109.992188 0.777344 110.03125 0.777344 110.03125 0.851562 C 109.808594 0.742188 110.03125 0.925781 109.808594 0.964844 C 109.734375 0.964844 109.625 0.964844 109.511719 0.964844 C 109.511719 0.925781 109.550781 0.890625 109.511719 0.851562 C 109.402344 0.925781 109.476562 0.925781 109.441406 1 C 109.328125 1 109.328125 1 109.253906 1.035156 L 109.035156 1.148438 C 108.960938 1.148438 109.035156 1.109375 108.921875 1.183594 L 108.960938 1.222656 C 108.996094 1.257812 108.960938 1.222656 108.996094 1.296875 C 108.960938 1.371094 108.960938 1.296875 108.960938 1.40625 C 108.847656 1.40625 108.738281 1.332031 108.664062 1.371094 C 108.628906 1.519531 108.703125 1.480469 108.554688 1.554688 L 108.554688 1.703125 C 108.960938 1.777344 108.8125 1.667969 108.996094 1.554688 C 108.996094 1.554688 109.035156 1.519531 109.035156 1.519531 C 109.070312 1.480469 109.070312 1.480469 109.109375 1.40625 C 109.21875 1.40625 109.179688 1.445312 109.328125 1.371094 L 109.585938 1.703125 C 109.625 1.667969 109.585938 1.703125 109.625 1.667969 L 109.699219 1.59375 C 109.660156 1.554688 109.660156 1.554688 109.625 1.554688 C 109.550781 1.480469 109.476562 1.445312 109.476562 1.332031 C 109.625 1.371094 109.550781 1.40625 109.625 1.445312 L 109.660156 1.445312 C 109.699219 1.480469 109.699219 1.480469 109.734375 1.519531 C 109.773438 1.628906 109.773438 1.554688 109.847656 1.628906 C 109.917969 1.742188 109.847656 1.742188 109.957031 1.742188 C 109.992188 1.667969 109.992188 1.667969 109.957031 1.59375 L 109.992188 1.59375 C 110.066406 1.554688 110.105469 1.554688 110.214844 1.554688 C 110.25 1.445312 110.214844 1.445312 110.179688 1.332031 C 110.289062 1.332031 110.289062 1.332031 110.363281 1.296875 L 110.398438 1.332031 C 110.4375 1.40625 110.472656 1.40625 110.546875 1.371094 C 110.546875 1.296875 110.546875 1.371094 110.511719 1.296875 C 110.585938 1.257812 110.585938 1.257812 110.65625 1.257812 C 110.65625 1.445312 110.546875 1.257812 110.804688 1.445312 C 110.988281 1.59375 110.511719 1.480469 110.511719 1.480469 C 110.398438 1.480469 110.363281 1.59375 110.179688 1.59375 L 110.140625 1.703125 C 110.25 1.742188 110.214844 1.777344 110.363281 1.777344 C 110.4375 1.777344 110.511719 1.777344 110.621094 1.777344 L 110.546875 2.035156 C 110.4375 2.035156 110.25 2.074219 110.140625 2.035156 C 109.957031 2 109.917969 1.890625 109.808594 2.074219 C 109.660156 2.035156 109.511719 1.964844 109.402344 1.851562 C 109.441406 1.742188 109.441406 1.851562 109.441406 1.742188 C 109.21875 1.628906 108.996094 1.777344 108.773438 1.742188 C 108.664062 1.742188 108.628906 1.742188 108.554688 1.816406 C 108.480469 1.851562 108.515625 1.851562 108.480469 1.964844 C 108.441406 2 108.40625 2.035156 108.371094 2.074219 C 108.296875 2.109375 108.148438 2.296875 108.109375 2.371094 C 108.109375 2.445312 108.109375 2.371094 108.109375 2.480469 C 108.109375 2.628906 108 2.667969 108.035156 2.816406 C 108.035156 2.890625 108.035156 2.851562 108.109375 2.925781 C 108.222656 3.074219 108.109375 3.074219 108.296875 3.183594 C 108.371094 3.222656 108.371094 3.257812 108.40625 3.296875 C 108.515625 3.296875 108.554688 3.257812 108.664062 3.296875 C 108.8125 3.332031 108.8125 3.296875 108.921875 3.257812 C 108.996094 3.296875 108.960938 3.332031 109.035156 3.371094 C 109.144531 3.40625 109.109375 3.371094 109.21875 3.40625 C 109.21875 3.445312 109.253906 3.519531 109.253906 3.554688 C 109.253906 3.667969 109.253906 3.59375 109.179688 3.628906 C 109.253906 3.703125 109.476562 3.925781 109.511719 4 C 109.660156 4.222656 109.441406 4.257812 109.550781 4.445312 C 109.625 4.519531 109.625 4.519531 109.660156 4.628906 C 109.699219 4.667969 109.734375 4.777344 109.773438 4.816406 C 109.808594 5 109.808594 4.890625 109.882812 5.035156 "></path><path style=" stroke:none;fill-rule:evenodd;fill:rgb(0%,28.627451%,50.196078%);fill-opacity:1;" d="M 112.6875 1.777344 C 115.199219 1.777344 111.765625 3.964844 110.472656 4.257812 C 109.808594 4.445312 105.5625 4.890625 107.261719 3.183594 C 107.296875 4.628906 109.847656 4 110.398438 3.851562 C 110.953125 3.777344 113.464844 2.703125 112.6875 1.777344 "></path><path style=" stroke:none;fill-rule:nonzero;fill:rgb(98.039216%,66.666667%,19.215686%);fill-opacity:1;" d="M 108.664062 15.890625 L 108.664062 10.851562 C 108.664062 9.59375 108.109375 8.964844 107.039062 8.964844 C 106.707031 8.964844 106.375 9.074219 106.082031 9.296875 C 105.785156 9.519531 105.601562 9.742188 105.488281 10 L 105.488281 15.851562 L 104.085938 15.851562 L 104.085938 10.257812 C 104.085938 9.851562 103.9375 9.554688 103.644531 9.332031 C 103.347656 9.109375 102.980469 9 102.460938 9 C 102.167969 9 101.871094 9.109375 101.578125 9.332031 C 101.246094 9.554688 101.023438 9.777344 100.910156 10.035156 L 100.910156 15.890625 L 99.507812 15.890625 L 99.507812 7.964844 L 100.433594 7.964844 L 100.910156 8.890625 C 101.464844 8.183594 102.128906 7.816406 102.941406 7.816406 C 104.085938 7.816406 104.863281 8.148438 105.304688 8.890625 C 105.453125 8.59375 105.75 8.332031 106.191406 8.148438 C 106.632812 7.964844 107.078125 7.851562 107.519531 7.851562 C 108.332031 7.851562 108.960938 8.109375 109.402344 8.59375 C 109.847656 9.074219 110.066406 9.777344 110.066406 10.628906 L 110.066406 15.925781 L 108.664062 15.925781 Z M 92.347656 11.890625 C 92.347656 13.890625 93.050781 14.851562 94.453125 14.851562 C 95.117188 14.851562 95.597656 14.59375 95.964844 14.035156 C 96.335938 13.519531 96.519531 12.777344 96.519531 11.851562 C 96.519531 9.890625 95.816406 8.925781 94.414062 8.925781 C 93.789062 8.925781 93.269531 9.183594 92.902344 9.703125 C 92.53125 10.257812 92.347656 11 92.347656 11.890625 Z M 90.871094 11.890625 C 90.871094 10.667969 91.203125 9.667969 91.867188 8.925781 C 92.53125 8.183594 93.382812 7.816406 94.453125 7.816406 C 95.597656 7.816406 96.445312 8.183594 97.074219 8.890625 C 97.699219 9.628906 97.996094 10.628906 97.996094 11.890625 C 97.996094 13.148438 97.664062 14.183594 97.035156 14.925781 C 96.410156 15.667969 95.523438 16.035156 94.414062 16.035156 C 93.269531 16.035156 92.421875 15.667969 91.792969 14.925781 C 91.203125 14.183594 90.871094 13.183594 90.871094 11.890625 Z M 89.910156 8.59375 L 89.210938 9.59375 C 89.0625 9.445312 88.804688 9.332031 88.433594 9.183594 C 88.066406 9.074219 87.695312 9 87.363281 9 C 86.589844 9 85.996094 9.257812 85.519531 9.816406 C 85.074219 10.332031 84.851562 11.074219 84.851562 12.035156 C 84.851562 12.964844 85.074219 13.667969 85.554688 14.148438 C 85.996094 14.628906 86.664062 14.890625 87.472656 14.890625 C 88.101562 14.890625 88.730469 14.628906 89.394531 14.148438 L 89.949219 15.332031 C 89.210938 15.816406 88.25 16.074219 87.140625 16.074219 C 86.070312 16.074219 85.1875 15.703125 84.484375 15 C 83.78125 14.257812 83.414062 13.296875 83.414062 12.035156 C 83.414062 10.777344 83.78125 9.777344 84.519531 9 C 85.257812 8.222656 86.257812 7.851562 87.546875 7.851562 C 87.953125 7.851562 88.398438 7.925781 88.878906 8.109375 C 89.355469 8.222656 89.691406 8.40625 89.910156 8.59375 Z M 79.980469 13.816406 C 80.277344 13.816406 80.535156 13.925781 80.753906 14.148438 C 80.976562 14.371094 81.089844 14.628906 81.089844 14.925781 C 81.089844 15.222656 80.976562 15.480469 80.753906 15.703125 C 80.535156 15.925781 80.277344 16.035156 79.980469 16.035156 C 79.683594 16.035156 79.425781 15.925781 79.207031 15.703125 C 78.984375 15.480469 78.871094 15.222656 78.871094 14.925781 C 78.871094 14.628906 78.984375 14.371094 79.207031 14.148438 C 79.425781 13.925781 79.683594 13.816406 79.980469 13.816406 Z M 71.75 15.40625 L 72.226562 14.074219 C 73.003906 14.59375 73.628906 14.851562 74.109375 14.851562 C 74.960938 14.851562 75.402344 14.480469 75.402344 13.742188 C 75.402344 13.222656 74.996094 12.777344 74.148438 12.40625 C 73.519531 12.109375 73.078125 11.890625 72.855469 11.742188 C 72.632812 11.59375 72.449219 11.40625 72.265625 11.222656 C 72.117188 11.035156 71.96875 10.816406 71.894531 10.59375 C 71.820312 10.371094 71.785156 10.148438 71.785156 9.890625 C 71.785156 9.222656 72.007812 8.742188 72.488281 8.371094 C 72.964844 8 73.59375 7.816406 74.332031 7.816406 C 74.921875 7.816406 75.625 8 76.511719 8.371094 L 76.105469 9.667969 C 75.550781 9.222656 74.996094 9 74.441406 9 C 74.109375 9 73.816406 9.074219 73.59375 9.222656 C 73.371094 9.371094 73.261719 9.59375 73.261719 9.816406 C 73.261719 10.332031 73.558594 10.703125 74.109375 10.964844 L 75.109375 11.40625 C 75.734375 11.703125 76.179688 12 76.4375 12.371094 C 76.730469 12.742188 76.84375 13.183594 76.84375 13.742188 C 76.84375 14.445312 76.585938 15 76.105469 15.40625 C 75.625 15.816406 74.921875 16 74.035156 16 C 73.261719 16.035156 72.449219 15.816406 71.75 15.40625 Z M 67.796875 17.222656 C 67.613281 17.742188 67.246094 18.148438 66.652344 18.480469 C 66.0625 18.816406 65.433594 19 64.695312 19 L 64.695312 17.742188 C 65.289062 17.742188 65.769531 17.59375 66.210938 17.332031 C 66.617188 17.074219 66.839844 16.742188 66.839844 16.332031 C 66.839844 15.890625 66.765625 15.480469 66.617188 15.035156 C 66.46875 14.628906 66.285156 14.109375 66.027344 13.480469 L 63.886719 7.964844 L 65.324219 7.964844 L 67.648438 14.074219 L 69.71875 7.964844 L 71.15625 7.964844 Z M 61.191406 12 C 60.746094 11.890625 60.453125 11.851562 60.265625 11.851562 C 59.566406 11.851562 58.976562 12.035156 58.53125 12.40625 C 58.089844 12.777344 57.867188 13.222656 57.867188 13.703125 C 57.867188 14.519531 58.347656 14.925781 59.308594 14.925781 C 60.007812 14.925781 60.636719 14.59375 61.191406 13.925781 Z M 61.300781 14.964844 C 60.746094 15.667969 59.898438 16.035156 58.714844 16.035156 C 58.089844 16.035156 57.570312 15.816406 57.09375 15.371094 C 56.648438 14.925781 56.429688 14.371094 56.429688 13.667969 C 56.429688 12.851562 56.761719 12.183594 57.460938 11.628906 C 58.164062 11.074219 59.050781 10.816406 60.121094 10.816406 C 60.414062 10.816406 60.746094 10.890625 61.117188 11 C 61.117188 9.703125 60.5625 9.074219 59.417969 9.074219 C 58.53125 9.074219 57.867188 9.296875 57.386719 9.777344 L 56.796875 8.59375 C 57.054688 8.371094 57.425781 8.183594 57.90625 8.035156 C 58.382812 7.890625 58.828125 7.816406 59.234375 7.816406 C 60.378906 7.816406 61.226562 8.074219 61.742188 8.59375 C 62.261719 9.109375 62.519531 9.964844 62.519531 11.074219 L 62.519531 13.925781 C 62.519531 14.628906 62.742188 15.074219 63.148438 15.332031 L 63.148438 16.035156 C 62.59375 16.035156 62.148438 15.964844 61.855469 15.777344 C 61.632812 15.628906 61.449219 15.332031 61.300781 14.964844 Z M 53.472656 9.777344 C 53.105469 9.257812 52.625 8.964844 52.035156 8.964844 C 51.296875 8.964844 50.667969 9.257812 50.226562 9.816406 C 49.746094 10.371094 49.523438 11.074219 49.523438 11.964844 C 49.523438 13.851562 50.375 14.816406 52.109375 14.816406 C 52.328125 14.816406 52.589844 14.742188 52.921875 14.59375 C 53.214844 14.445312 53.4375 14.296875 53.511719 14.148438 L 53.511719 9.777344 Z M 53.472656 15.890625 L 53.472656 15.296875 C 52.996094 15.777344 52.292969 16 51.332031 16 C 50.335938 16 49.5625 15.628906 48.933594 14.925781 C 48.304688 14.222656 48.011719 13.257812 48.011719 12.074219 C 48.011719 10.890625 48.378906 9.851562 49.082031 9.035156 C 49.78125 8.183594 50.632812 7.777344 51.628906 7.777344 C 52.441406 7.777344 53.070312 7.964844 53.472656 8.371094 L 53.472656 4.703125 L 54.878906 4.703125 L 54.878906 15.890625 Z M 44.800781 15.890625 L 44.800781 9.148438 L 43.730469 9.148438 L 43.730469 7.964844 L 46.238281 7.964844 L 46.238281 15.890625 Z M 45.574219 4.964844 C 45.796875 4.964844 46.015625 5.035156 46.203125 5.222656 C 46.386719 5.40625 46.460938 5.59375 46.460938 5.851562 C 46.460938 6.109375 46.386719 6.296875 46.203125 6.480469 C 46.015625 6.667969 45.832031 6.742188 45.574219 6.742188 C 45.351562 6.742188 45.132812 6.667969 44.945312 6.480469 C 44.761719 6.296875 44.6875 6.109375 44.6875 5.851562 C 44.6875 5.59375 44.761719 5.40625 44.945312 5.222656 C 45.132812 5.035156 45.351562 4.964844 45.574219 4.964844 Z M 39.777344 13.628906 L 39.777344 4.703125 L 41.179688 4.703125 L 41.179688 13.40625 C 41.179688 13.816406 41.292969 14.148438 41.550781 14.40625 C 41.808594 14.667969 42.105469 14.777344 42.511719 14.777344 L 42.511719 16.035156 C 40.703125 16.035156 39.777344 15.257812 39.777344 13.628906 Z M 32.542969 11.890625 C 32.542969 13.890625 33.246094 14.851562 34.648438 14.851562 C 35.3125 14.851562 35.792969 14.59375 36.160156 14.035156 C 36.53125 13.519531 36.714844 12.777344 36.714844 11.851562 C 36.714844 9.890625 36.011719 8.925781 34.609375 8.925781 C 33.984375 8.925781 33.464844 9.183594 33.097656 9.703125 C 32.726562 10.257812 32.542969 11 32.542969 11.890625 Z M 31.066406 11.890625 C 31.066406 10.667969 31.398438 9.667969 32.0625 8.925781 C 32.726562 8.183594 33.578125 7.816406 34.648438 7.816406 C 35.792969 7.816406 36.640625 8.183594 37.269531 8.890625 C 37.894531 9.628906 38.191406 10.628906 38.191406 11.890625 C 38.191406 13.148438 37.859375 14.183594 37.230469 14.925781 C 36.605469 15.667969 35.71875 16.035156 34.609375 16.035156 C 33.464844 16.035156 32.617188 15.667969 31.988281 14.925781 C 31.363281 14.183594 31.066406 13.183594 31.066406 11.890625 Z M 28.1875 15.890625 L 28.1875 10.890625 C 28.1875 10.296875 28.039062 9.816406 27.742188 9.480469 C 27.449219 9.148438 27.042969 8.964844 26.527344 8.964844 C 26.191406 8.964844 25.859375 9.074219 25.492188 9.257812 C 25.160156 9.445312 24.902344 9.703125 24.714844 9.964844 L 24.714844 15.851562 L 23.3125 15.851562 L 23.3125 4.703125 L 24.714844 4.703125 L 24.714844 8.816406 C 24.902344 8.519531 25.195312 8.296875 25.601562 8.074219 C 26.007812 7.890625 26.453125 7.777344 26.894531 7.777344 C 27.742188 7.777344 28.371094 8.035156 28.851562 8.59375 C 29.332031 9.148438 29.550781 9.890625 29.550781 10.851562 L 29.550781 15.851562 L 28.1875 15.851562 Z M 28.1875 15.890625 "></path></g></svg> 