<?xml version="1.0" encoding="UTF-8"?> <svg xmlns="http://www.w3.org/2000/svg" xmlns:xlink="http://www.w3.org/1999/xlink" width="67pt" height="9pt" viewBox="0 0 67 9" version="1.1"><g id="surface1"><path style=" stroke:none;fill-rule:nonzero;fill:rgb(0%,40.784314%,64.313725%);fill-opacity:1;" d="M 4.46875 0 C 2.707031 -0.0859375 0.960938 0.738281 0.960938 0.738281 L 1.433594 2.113281 C 1.433594 2.113281 2.46875 1.683594 3.980469 1.683594 C 5.488281 1.683594 5.675781 2.351562 5.675781 2.886719 C 5.675781 3.417969 5.675781 3.726562 5.675781 3.726562 L 3.386719 3.726562 C 1.875 3.726562 0.296875 4.65625 0.296875 6.441406 C 0.296875 8.226562 1.636719 8.984375 3.128906 8.984375 C 4.625 8.984375 5.707031 8.246094 5.707031 8.246094 C 5.707031 8.246094 6.03125 8.484375 6.4375 8.570312 C 6.84375 8.65625 7.457031 8.640625 7.457031 8.640625 C 7.457031 8.640625 7.472656 3.640625 7.472656 2.148438 C 7.472656 0.652344 6.234375 0.0859375 4.46875 0 M 5.640625 6.972656 C 5.640625 6.972656 4.46875 7.488281 3.488281 7.488281 C 2.503906 7.488281 2.113281 6.921875 2.113281 6.320312 C 2.113281 5.71875 2.402344 5.253906 3.25 5.117188 C 4.097656 4.980469 5.65625 4.980469 5.65625 4.980469 L 5.65625 6.972656 Z M 5.640625 6.972656 "></path><path style=" stroke:none;fill-rule:nonzero;fill:rgb(0%,40.784314%,64.313725%);fill-opacity:1;" d="M 26.148438 0 C 24.382812 -0.0859375 22.636719 0.738281 22.636719 0.738281 L 23.109375 2.113281 C 23.109375 2.113281 24.144531 1.683594 25.65625 1.683594 C 27.148438 1.683594 27.351562 2.351562 27.351562 2.886719 C 27.351562 3.417969 27.351562 3.726562 27.351562 3.726562 L 25.078125 3.726562 C 23.570312 3.726562 21.992188 4.636719 21.992188 6.421875 C 21.992188 8.210938 23.332031 8.964844 24.824219 8.964844 C 26.316406 8.964844 27.402344 8.226562 27.402344 8.226562 C 27.402344 8.226562 27.726562 8.46875 28.132812 8.554688 C 28.539062 8.640625 29.148438 8.621094 29.148438 8.621094 C 29.148438 8.621094 29.167969 3.625 29.167969 2.128906 C 29.148438 0.652344 27.910156 0.0859375 26.148438 0 M 27.316406 6.972656 C 27.316406 6.972656 26.148438 7.488281 25.164062 7.488281 C 24.179688 7.488281 23.789062 6.921875 23.789062 6.320312 C 23.789062 5.71875 24.078125 5.253906 24.925781 5.117188 C 25.773438 4.980469 27.335938 4.980469 27.335938 4.980469 L 27.335938 6.972656 Z M 27.316406 6.972656 "></path><path style=" stroke:none;fill-rule:nonzero;fill:rgb(0%,40.784314%,64.313725%);fill-opacity:1;" d="M 11.847656 8.8125 L 9.949219 8.8125 L 10.796875 0.0859375 C 10.796875 0.0859375 11.238281 0.015625 11.714844 0.015625 C 12.375 0.015625 12.917969 0.136719 13.222656 0.960938 C 13.527344 1.769531 15.003906 5.597656 15.003906 5.597656 C 15.003906 5.597656 16.496094 1.667969 16.769531 1.011719 C 17.125 0.207031 17.515625 0.015625 18.277344 0.015625 C 18.9375 0.015625 19.191406 0.101562 19.191406 0.101562 L 20.058594 8.8125 L 18.175781 8.8125 L 17.75 3.039062 C 17.75 3.039062 16.445312 6.285156 16.070312 7.164062 C 15.714844 7.988281 15.273438 7.933594 15.019531 7.933594 C 14.765625 7.933594 14.273438 7.988281 13.984375 7.230469 C 13.664062 6.441406 12.289062 2.972656 12.289062 2.972656 Z M 11.847656 8.8125 "></path><path style=" stroke:none;fill-rule:nonzero;fill:rgb(0%,40.784314%,64.313725%);fill-opacity:1;" d="M 35.425781 0.015625 C 33.710938 0.015625 31.929688 0.566406 31.929688 0.566406 L 31.929688 8.757812 C 31.929688 8.757812 33.066406 8.984375 35.152344 8.984375 C 37.257812 8.984375 39.75 8.671875 39.75 4.515625 C 39.765625 0.667969 36.984375 0.015625 35.425781 0.015625 M 35.476562 7.472656 C 34.40625 7.472656 33.832031 7.367188 33.832031 7.367188 L 33.832031 1.71875 C 33.832031 1.71875 34.59375 1.527344 35.613281 1.527344 C 36.410156 1.527344 37.816406 2.234375 37.816406 4.464844 C 37.816406 7.144531 36.542969 7.472656 35.476562 7.472656 Z M 35.476562 7.472656 "></path><path style=" stroke:none;fill-rule:nonzero;fill:rgb(0%,40.784314%,64.313725%);fill-opacity:1;" d="M 42.039062 0.464844 C 42.039062 0.464844 43.871094 0.015625 45.398438 0.015625 C 46.925781 0.015625 48.128906 0.242188 48.128906 0.242188 L 48.128906 1.769531 C 48.128906 1.769531 46.855469 1.527344 45.738281 1.527344 C 44.636719 1.527344 43.921875 1.683594 43.921875 1.683594 L 43.921875 3.710938 L 47.707031 3.710938 L 47.707031 5.167969 L 43.941406 5.167969 L 43.941406 7.25 C 43.941406 7.25 44.378906 7.472656 45.890625 7.472656 C 47.398438 7.472656 48.265625 7.265625 48.265625 7.265625 L 48.265625 8.777344 C 48.265625 8.777344 46.382812 9 45.398438 9 C 44.414062 9 42.039062 8.585938 42.039062 8.585938 Z M 42.039062 0.464844 "></path><path style=" stroke:none;fill-rule:nonzero;fill:rgb(0%,40.784314%,64.313725%);fill-opacity:1;" d="M 50.46875 0.257812 C 50.46875 0.257812 51.03125 0.136719 51.417969 0.121094 C 51.808594 0.101562 52.351562 0.101562 52.351562 0.101562 L 52.351562 5.53125 C 52.351562 6.886719 52.84375 7.300781 53.894531 7.300781 C 54.949219 7.300781 56.21875 6.664062 56.21875 6.664062 L 56.21875 0.0859375 C 56.21875 0.0859375 56.695312 0.0703125 57.289062 0.121094 C 57.882812 0.171875 58.101562 0.222656 58.101562 0.222656 L 58.101562 8.691406 C 58.101562 8.691406 57.492188 8.65625 57.136719 8.585938 C 56.796875 8.519531 56.253906 8.246094 56.253906 8.246094 C 56.253906 8.246094 54.914062 9 53.386719 9 C 51.84375 9 50.453125 8.621094 50.453125 5.910156 L 50.453125 0.257812 Z M 50.46875 0.257812 "></path><path style=" stroke:none;fill-rule:nonzero;fill:rgb(0%,40.784314%,64.313725%);fill-opacity:1;" d="M 66.378906 0.667969 C 66.378906 0.667969 65.363281 0.015625 63.582031 0.015625 C 61.800781 0.015625 60.441406 1.046875 60.441406 2.523438 C 60.441406 4.085938 61.75 4.6875 62.5625 5 C 63.378906 5.308594 64.785156 5.617188 64.785156 6.441406 C 64.785156 7.265625 64.003906 7.417969 63.039062 7.417969 C 62.070312 7.417969 60.730469 7.144531 60.730469 7.144531 L 60.359375 8.621094 C 60.359375 8.621094 61.613281 8.964844 63.070312 8.964844 C 64.53125 8.964844 66.667969 8.605469 66.667969 6.371094 C 66.667969 4.570312 65.074219 4.105469 63.972656 3.691406 C 62.867188 3.28125 62.324219 2.972656 62.324219 2.4375 C 62.324219 1.890625 62.816406 1.546875 63.765625 1.546875 C 64.71875 1.546875 65.820312 2.027344 65.820312 2.027344 Z M 66.378906 0.667969 "></path></g></svg> 