<?xml version="1.0" encoding="UTF-8"?> <svg xmlns="http://www.w3.org/2000/svg" xmlns:xlink="http://www.w3.org/1999/xlink" width="88pt" height="21pt" viewBox="0 0 88 21" version="1.1"><g id="surface1"><path style=" stroke:none;fill-rule:evenodd;fill:rgb(92.941176%,18.823529%,16.862745%);fill-opacity:1;" d="M 87.726562 14.054688 C 87.726562 14.234375 87.636719 14.417969 87.636719 14.601562 C 87.636719 14.691406 87.636719 14.691406 87.546875 14.691406 L 77.589844 14.691406 C 77.589844 15.054688 77.136719 16.148438 78.042969 16.605469 C 78.675781 16.96875 80.757812 17.058594 81.300781 16.058594 C 81.390625 15.96875 81.390625 15.875 81.480469 15.875 L 87.09375 15.875 C 87.09375 16.242188 86.097656 17.605469 85.738281 18.0625 C 83.925781 20.066406 80.757812 20.886719 78.132812 20.886719 C 77.046875 20.886719 75.6875 20.703125 74.691406 20.25 C 74.328125 20.066406 73.96875 19.976562 73.695312 19.703125 C 72.972656 19.246094 72.429688 18.699219 71.976562 17.972656 C 71.703125 17.515625 71.523438 17.058594 71.339844 16.605469 C 70.980469 15.054688 71.160156 13.324219 71.613281 11.957031 C 71.792969 11.503906 71.886719 11.230469 72.066406 10.773438 C 72.15625 10.589844 72.246094 10.410156 72.335938 10.226562 L 72.789062 9.496094 C 73.332031 8.769531 74.328125 7.949219 75.234375 7.402344 C 78.585938 5.398438 83.746094 5.398438 86.734375 8.132812 C 87.003906 8.40625 87.277344 8.675781 87.457031 8.949219 C 87.726562 9.496094 87.910156 10.136719 88 10.683594 C 88.089844 11.867188 87.910156 12.960938 87.726562 14.054688 M 59.753906 8.585938 L 63.195312 8.3125 C 62.921875 8.40625 59.933594 8.769531 59.664062 8.859375 C 59.664062 9.042969 59.480469 9.679688 59.480469 9.953125 L 58.304688 15.238281 C 58.214844 15.875 57.941406 16.785156 57.851562 17.425781 C 57.761719 18.0625 57.488281 18.882812 57.398438 19.519531 C 57.398438 19.703125 57.308594 19.886719 57.308594 20.066406 C 57.21875 20.339844 57.21875 20.25 57.671875 20.25 L 64.371094 20.25 C 64.550781 18.0625 65.183594 13.050781 67.359375 11.777344 C 67.992188 11.410156 70.527344 11.410156 70.980469 11.503906 C 71.070312 11.320312 71.703125 6.671875 71.703125 6.492188 C 70.617188 6.492188 69.53125 6.398438 68.535156 6.855469 L 68.082031 7.039062 C 67.902344 7.128906 67.628906 7.3125 67.449219 7.492188 C 67.175781 7.675781 66.996094 7.949219 66.816406 8.132812 C 66.722656 8.222656 66.722656 8.3125 66.632812 8.40625 C 66.632812 7.765625 66.632812 7.21875 66.632812 6.671875 C 65.546875 6.671875 64.550781 6.671875 63.464844 6.671875 L 61.109375 6.671875 C 61.019531 6.671875 60.839844 6.671875 60.75 6.671875 C 60.566406 6.671875 60.566406 6.671875 60.386719 6.671875 C 60.207031 6.492188 59.753906 8.40625 59.753906 8.585938 Z M 50.15625 10.226562 C 50.15625 10.316406 50.246094 10.410156 50.246094 10.683594 C 50.335938 11.046875 50.335938 11.777344 50.335938 12.140625 C 50.335938 12.414062 50.246094 12.777344 50.246094 13.140625 C 50.15625 14.054688 49.792969 15.238281 49.25 15.96875 C 49.070312 16.242188 49.070312 16.242188 48.890625 16.332031 C 48.796875 16.421875 48.796875 16.421875 48.707031 16.421875 C 47.984375 16.785156 47.167969 16.695312 46.898438 15.96875 C 46.898438 15.875 46.804688 15.875 46.804688 15.785156 C 46.535156 15.238281 46.535156 14.234375 46.625 13.6875 L 46.804688 12.777344 C 46.898438 12.414062 46.988281 11.777344 47.078125 11.410156 C 47.167969 11.136719 47.257812 10.957031 47.351562 10.683594 C 47.257812 10.683594 40.289062 11.59375 40.289062 11.683594 C 40.199219 11.777344 38.566406 19.613281 38.566406 20.339844 C 40.648438 20.339844 42.734375 20.25 44.722656 20.25 L 45.085938 18.519531 C 45.175781 18.699219 45.8125 19.519531 45.902344 19.703125 C 46.082031 19.976562 46.261719 20.066406 46.625 20.25 C 47.710938 20.796875 49.613281 21.070312 50.878906 20.703125 C 53.957031 19.976562 56.585938 16.785156 57.035156 13.6875 C 57.21875 12.503906 57.21875 10.410156 56.765625 9.316406 C 56.402344 9.222656 50.15625 10.226562 50.15625 10.226562 Z M 40.558594 10.136719 L 56.585938 8.769531 C 56.585938 8.675781 56.492188 8.585938 56.492188 8.496094 C 56.492188 8.40625 56.402344 8.3125 56.402344 8.222656 C 56.222656 7.765625 55.859375 7.21875 55.40625 6.855469 C 55.046875 6.582031 54.953125 6.492188 54.59375 6.308594 C 53.777344 5.851562 52.78125 5.761719 51.785156 5.761719 C 51.605469 5.761719 51.242188 5.761719 51.0625 5.851562 C 50.609375 5.945312 50.519531 5.945312 50.15625 6.125 C 49.613281 6.308594 49.070312 6.671875 48.707031 7.039062 C 48.617188 7.128906 48.617188 7.128906 48.4375 7.21875 C 48.527344 6.945312 48.527344 6.671875 48.617188 6.398438 C 48.707031 6.125 48.707031 5.851562 48.796875 5.578125 C 48.890625 5.125 48.980469 4.394531 49.070312 3.941406 C 49.25 3.027344 49.433594 1.933594 49.613281 1.023438 C 49.613281 0.933594 49.613281 0.75 49.703125 0.566406 C 49.070312 0.566406 48.527344 0.566406 47.894531 0.566406 C 47.257812 0.566406 46.714844 0.566406 46.082031 0.566406 L 43.367188 0.566406 C 43.09375 0.566406 42.824219 0.476562 42.550781 0.566406 C 41.828125 3.667969 41.285156 7.128906 40.558594 10.136719 Z M 31.414062 10.863281 C 31.507812 10.863281 31.597656 10.863281 31.597656 10.863281 L 33.40625 10.683594 C 33.769531 10.683594 34.132812 10.589844 34.492188 10.589844 C 34.765625 10.589844 35.398438 10.5 35.582031 10.5 C 35.671875 10.410156 36.484375 10.410156 36.667969 10.410156 C 36.847656 10.410156 37.027344 10.410156 37.210938 10.316406 C 37.390625 10.316406 37.664062 10.316406 37.753906 10.226562 C 37.753906 9.496094 37.300781 8.585938 36.9375 7.949219 C 36.394531 7.128906 36.03125 6.945312 35.21875 6.492188 C 34.945312 6.308594 34.402344 6.125 34.132812 6.035156 C 33.679688 5.945312 33.226562 5.851562 32.773438 5.761719 C 31.234375 5.578125 29.0625 5.488281 27.523438 5.761719 C 27.25 5.761719 27.070312 5.851562 26.890625 5.945312 C 25.984375 6.21875 25.167969 6.671875 24.535156 7.128906 C 24.445312 7.21875 24.355469 7.21875 24.355469 7.3125 L 24.171875 7.492188 C 23.992188 7.675781 23.71875 7.949219 23.628906 8.132812 L 23.265625 8.585938 C 23.175781 8.769531 23.085938 8.859375 22.996094 9.042969 C 22.90625 9.132812 22.90625 9.222656 22.90625 9.316406 C 22.632812 10.042969 22.632812 10.042969 22.453125 10.773438 L 28.699219 10.773438 C 28.789062 10.589844 28.972656 9.679688 29.515625 9.496094 C 30.417969 9.316406 31.414062 9.589844 31.414062 10.863281 Z M 35.761719 12.230469 C 35.582031 12.324219 35.035156 12.324219 34.855469 12.324219 L 24.898438 13.6875 C 24.625 13.6875 21.457031 14.144531 21.277344 14.234375 C 20.097656 15.328125 19.917969 16.785156 20.460938 18.246094 C 20.550781 18.519531 20.824219 18.882812 21.003906 19.15625 C 22.542969 21.070312 26.707031 21.160156 28.519531 19.976562 L 28.878906 19.703125 C 28.972656 19.613281 29.425781 19.246094 29.515625 19.15625 C 29.515625 20.339844 29.425781 20.160156 29.96875 20.160156 C 30.148438 20.160156 30.328125 20.160156 30.417969 20.160156 C 31.414062 20.160156 35.941406 20.25 36.304688 20.066406 C 36.304688 17.605469 37.753906 14.234375 37.753906 11.867188 C 37.664062 11.867188 36.847656 11.957031 36.757812 11.957031 C 36.394531 12.140625 36.03125 12.140625 35.761719 12.230469 Z M 28.246094 17.058594 C 26.890625 17.058594 27.070312 14.964844 28.699219 14.691406 C 28.972656 14.691406 29.96875 14.417969 30.148438 14.78125 C 30.328125 15.148438 30.058594 16.148438 29.695312 16.515625 C 29.515625 16.695312 29.332031 16.785156 29.0625 16.878906 C 28.789062 16.96875 28.429688 17.058594 28.246094 17.058594 Z M 19.195312 14.507812 C 18.921875 14.507812 12.402344 15.421875 12.222656 15.511719 C 12.132812 15.695312 11.859375 15.96875 11.769531 16.058594 C 11.679688 16.148438 11.589844 16.148438 11.40625 16.242188 C 10.773438 16.605469 8.964844 16.695312 8.148438 16.515625 C 7.875 16.421875 7.695312 16.332031 7.515625 16.058594 C 7.332031 15.785156 7.332031 14.78125 7.332031 14.234375 C 7.0625 14.234375 6.972656 14.234375 6.789062 14.234375 L 0.632812 14.234375 C 0.179688 14.234375 0.0898438 14.144531 0 14.417969 L 0 15.238281 C 0 16.421875 0.273438 17.425781 1.085938 18.335938 C 1.359375 18.609375 1.449219 18.699219 1.71875 18.972656 C 2.714844 19.886719 4.617188 20.433594 5.976562 20.613281 C 8.511719 20.886719 12.3125 20.886719 14.847656 19.886719 C 15.027344 19.792969 15.121094 19.792969 15.300781 19.703125 C 15.84375 19.429688 15.753906 19.519531 16.296875 19.15625 L 17.5625 18.152344 C 17.925781 17.789062 18.015625 17.699219 18.378906 17.152344 C 18.558594 16.878906 18.648438 16.695312 18.832031 16.421875 C 18.832031 16.058594 19.195312 14.964844 19.195312 14.507812 Z M 7.96875 12.867188 C 8.058594 12.867188 7.96875 12.867188 7.96875 12.867188 C 8.148438 12.867188 8.148438 12.867188 8.148438 12.867188 C 8.238281 12.867188 8.238281 12.867188 8.328125 12.867188 L 10.863281 12.6875 C 11.769531 12.59375 12.765625 12.503906 13.671875 12.414062 C 14.304688 12.324219 19.195312 12.050781 19.285156 11.957031 C 19.285156 11.683594 19.011719 11.046875 18.921875 10.863281 C 17.65625 8.222656 14.214844 7.675781 11.589844 7.3125 C 11.40625 7.3125 11.136719 7.21875 11.046875 7.128906 C 10.230469 6.855469 9.507812 6.582031 9.597656 5.671875 C 9.597656 5.488281 9.6875 5.304688 9.777344 5.214844 C 10.050781 4.851562 10.140625 4.757812 10.59375 4.578125 C 11.226562 4.304688 13.035156 4.484375 13.398438 5.214844 C 13.488281 5.398438 13.488281 5.578125 13.582031 5.761719 L 13.582031 6.492188 C 15.753906 6.492188 17.835938 6.492188 20.007812 6.492188 C 20.460938 6.492188 20.371094 6.582031 20.371094 6.125 C 20.371094 4.757812 20.097656 3.667969 19.195312 2.574219 C 19.101562 2.480469 19.101562 2.480469 19.011719 2.390625 C 16.566406 -0.0703125 12.222656 -0.0703125 9.054688 0.386719 C 8.511719 0.386719 7.695312 0.566406 7.152344 0.75 C 7.0625 0.75 6.972656 0.839844 6.878906 0.839844 C 5.792969 1.207031 4.074219 2.117188 3.351562 2.847656 C 2.714844 3.484375 2.535156 3.757812 2.171875 4.484375 C 2.082031 4.667969 1.992188 4.941406 1.992188 5.03125 C 1.8125 5.945312 1.71875 7.039062 1.902344 7.949219 C 1.902344 8.132812 1.992188 8.40625 2.082031 8.585938 C 2.171875 8.859375 2.171875 8.949219 2.261719 9.132812 C 2.355469 9.40625 2.714844 9.863281 2.898438 10.042969 C 3.351562 10.589844 3.621094 10.683594 4.164062 11.136719 C 4.707031 11.59375 5.523438 11.957031 6.246094 12.230469 C 6.789062 12.414062 6.878906 12.503906 7.425781 12.6875 C 7.515625 12.6875 7.605469 12.777344 7.695312 12.777344 C 7.785156 12.777344 7.96875 12.867188 7.96875 12.867188 Z M 81.933594 11.410156 C 81.570312 11.410156 81.210938 11.410156 80.847656 11.410156 C 80.667969 11.410156 80.484375 11.410156 80.304688 11.410156 C 80.125 11.410156 79.941406 11.410156 79.761719 11.410156 C 79.582031 11.410156 79.488281 11.410156 79.21875 11.410156 C 78.765625 11.410156 78.585938 11.410156 78.132812 11.410156 C 77.859375 11.410156 77.859375 11.410156 77.859375 11.136719 C 77.949219 10.5 78.765625 9.679688 79.398438 9.40625 C 79.761719 9.316406 80.574219 9.222656 81.027344 9.40625 C 81.210938 9.496094 81.300781 9.589844 81.480469 9.679688 C 81.664062 9.863281 81.664062 9.863281 81.753906 10.042969 C 82.113281 10.683594 81.933594 11.046875 81.933594 11.410156 Z M 81.933594 11.410156 "></path></g></svg> 